<?xml version="1.0" encoding="UTF-8"?>
<svg version="1.1" xmlns="http://www.w3.org/2000/svg" width="1024" height="1024">
<path d="M0 0 C337.92 0 675.84 0 1024 0 C1024 337.92 1024 675.84 1024 1024 C686.08 1024 348.16 1024 0 1024 C0 686.08 0 348.16 0 0 Z " fill="#F1F2F2" transform="translate(0,0)"/>
<path d="M0 0 C0.82927002 -0.00547852 1.65854004 -0.01095703 2.51293945 -0.01660156 C6.65661555 0.03251118 9.38968047 0.24135342 13.0625 2.3125 C12.68738281 2.83312012 12.31226563 3.35374023 11.92578125 3.89013672 C7.21343573 10.65745659 4.03829423 17.74020855 0.8515625 25.31640625 C-2.41626133 32.81991256 -6.04019401 39.33331495 -13.5625 43.1875 C-14.29726563 43.57679688 -15.03203125 43.96609375 -15.7890625 44.3671875 C-20.21283515 46.31364747 -24.103433 46.47439583 -28.9375 46.5 C-30.7628125 46.52126953 -30.7628125 46.52126953 -32.625 46.54296875 C-35.7094563 46.32836625 -37.36423876 45.94008774 -39.9375 44.3125 C-36.08695789 31.19000576 -24.30968642 19.49932162 -12.9375 12.3125 C-26.29144984 19.44837354 -38.3865468 28.13018167 -43.25390625 43.11328125 C-46.29547063 53.59203474 -46.79112792 63.53403147 -44.9375 74.3125 C-23.94838801 76.16927346 -3.01666649 77.62250088 18.0625 77.6875 C19.31557449 77.69873901 19.31557449 77.69873901 20.59396362 77.71020508 C33.62318013 77.80670707 46.85627252 77.28071494 59.0625 72.3125 C60.0525 72.3125 61.0425 72.3125 62.0625 72.3125 C58.82778481 89.56431435 52.85383071 106.62112233 45.0625 122.3125 C44.31105129 123.93823697 43.56404712 125.56603208 42.8203125 127.1953125 C35.31603359 143.52701667 26.59309205 158.49196387 15.0625 172.3125 C14.38646729 173.12630127 14.38646729 173.12630127 13.69677734 173.95654297 C-0.18205588 190.41321861 -16.98658816 201.0341695 -37.9375 206.3125 C-38.76266113 206.56833862 -38.76266113 206.56833862 -39.60449219 206.8293457 C-57.195907 210.47244009 -79.8727554 208.3009065 -96.9375 203.3125 C-97.61071289 203.12526367 -98.28392578 202.93802734 -98.97753906 202.74511719 C-108.52861603 200.04356684 -117.21090926 195.97833511 -125.9375 191.3125 C-124.49325365 188.07388697 -122.67977753 185.69280837 -120.3125 183.0625 C-119.68085938 182.35609375 -119.04921875 181.6496875 -118.3984375 180.921875 C-117.67527344 180.12523437 -117.67527344 180.12523437 -116.9375 179.3125 C-116.41542969 179.53389648 -115.89335937 179.75529297 -115.35546875 179.98339844 C-104.03590013 184.74614163 -92.95951041 188.76034137 -80.9375 191.3125 C-82.195625 190.9825 -83.45375 190.6525 -84.75 190.3125 C-90.2412661 188.66116962 -95.51645206 186.55918611 -100.8125 184.375 C-101.64499268 184.03919922 -102.47748535 183.70339844 -103.33520508 183.35742188 C-107.6278879 181.55657634 -110.91533296 180.00350729 -113.9375 176.3125 C-108.45280055 170.48658653 -102.7828004 165.19256789 -96.5 160.25 C-95.59580322 159.53493286 -95.59580322 159.53493286 -94.67333984 158.80541992 C-92.10972453 156.82109349 -90.03617849 155.34539283 -86.9375 154.3125 C-84.45979068 155.25825978 -82.09489147 156.27374645 -79.6875 157.375 C-63.89277909 164.22397724 -46.89714827 167.71733235 -29.9375 170.3125 C-30.8140625 170.1165625 -31.690625 169.920625 -32.59375 169.71875 C-49.83279067 165.65426074 -67.15343584 160.45115808 -82.9375 152.3125 C-81.43854727 148.30155094 -79.21977382 146.9494641 -75.58984375 144.81640625 C-74.50896484 144.17509766 -73.42808594 143.53378906 -72.31445312 142.87304688 C-70.61192383 141.88401367 -70.61192383 141.88401367 -68.875 140.875 C-67.76705078 140.21951172 -66.65910156 139.56402344 -65.51757812 138.88867188 C-63.3402325 137.60492641 -61.15721208 136.33075082 -58.96826172 135.06689453 C-57.07823405 133.97282825 -55.19770823 132.86196889 -53.33251953 131.72607422 C-49.05111677 129.17734232 -46.0426156 127.39854069 -40.9375 128.3125 C-37.57736999 129.40382428 -34.32839999 130.7184497 -31.0625 132.0625 C-16.43010185 138.04808011 -16.43010185 138.04808011 -0.9375 140.3125 C-2.53851562 139.92771484 -2.53851562 139.92771484 -4.171875 139.53515625 C-16.42434514 136.43799636 -27.56717794 131.78995121 -38.9375 126.3125 C-36.87218805 124.05181601 -35.10399771 122.74702213 -32.27978516 121.57910156 C-31.193181 121.124133 -31.193181 121.124133 -30.08462524 120.65997314 C-29.30646454 120.34421326 -28.52830383 120.02845337 -27.7265625 119.703125 C-26.51883682 119.20652374 -26.51883682 119.20652374 -25.28671265 118.69989014 C-23.58533436 118.00348886 -21.88229399 117.31113636 -20.17773438 116.62255859 C-17.57299691 115.56675482 -14.97796973 114.48925747 -12.3828125 113.41015625 C-10.72710945 112.73563504 -9.07087601 112.06241399 -7.4140625 111.390625 C-6.63995026 111.06676819 -5.86583801 110.74291138 -5.06826782 110.40924072 C0.88262691 108.04174307 3.76528317 108.37803892 9.75 110.8125 C14.42501722 112.64496373 19.0828609 113.01657882 24.0625 113.3125 C23.17046875 113.11914062 22.2784375 112.92578125 21.359375 112.7265625 C20.18890625 112.46617187 19.0184375 112.20578125 17.8125 111.9375 C16.65234375 111.68226563 15.4921875 111.42703125 14.296875 111.1640625 C11.60197599 110.45453595 9.46724168 109.68153611 7.0625 108.3125 C7.0625 107.6525 7.0625 106.9925 7.0625 106.3125 C8.87621094 105.56806641 8.87621094 105.56806641 10.7265625 104.80859375 C27.49252105 98.84172959 27.49252105 98.84172959 42.0625 89.3125 C41.46308594 89.6528125 40.86367188 89.993125 40.24609375 90.34375 C33.0549035 94.18996271 25.69406219 97.01130446 18 99.6875 C16.97640381 100.04521484 15.95280762 100.40292969 14.89819336 100.77148438 C7.45903577 103.3125 7.45903577 103.3125 4.0625 103.3125 C4.7225 100.0125 5.3825 96.7125 6.0625 93.3125 C5.134375 95.16875 5.134375 95.16875 4.1875 97.0625 C3.47916667 98.47916667 2.77083333 99.89583333 2.0625 101.3125 C1.87179932 101.9513916 1.68109863 102.5902832 1.48461914 103.24853516 C-0.7580687 106.50341637 -4.1607372 107.24898298 -7.76171875 108.4765625 C-8.54134476 108.75470795 -9.32097076 109.03285339 -10.1242218 109.31942749 C-12.61988771 110.20580107 -15.12218179 111.07155617 -17.625 111.9375 C-19.29147092 112.5273611 -20.95749258 113.11849311 -22.62304688 113.7109375 C-29.35295273 116.09071681 -36.05377631 118.41428334 -42.9375 120.3125 C-42.34107597 111.51524552 -39.71215587 103.6364676 -36.9375 95.3125 C-39.58663505 99.90057644 -41.80314431 104.36151055 -42.9609375 109.55078125 C-45.55601867 121.08922056 -45.55601867 121.08922056 -49.359375 124.45703125 C-52.4925177 125.99396476 -55.65003 127.14256888 -58.9375 128.3125 C-61.70316772 129.61725409 -64.41003377 131.03090527 -67.125 132.4375 C-72.66312926 135.22654723 -78.23647703 137.86920444 -83.9375 140.3125 C-82.88420209 125.30300479 -77.61461627 112.55977644 -70.9375 99.3125 C-70.6075 98.6525 -70.2775 97.9925 -69.9375 97.3125 C-76.31641377 107.81989858 -82.58142843 118.68941774 -84.85546875 130.91015625 C-87.31326213 143.48812217 -87.31326213 143.48812217 -92.45703125 147.39453125 C-95.83810999 149.59117888 -99.38680875 151.4260596 -102.98291016 153.2421875 C-106.74302084 155.30118391 -109.87829204 158.13629792 -113.1171875 160.9140625 C-114.9375 162.3125 -114.9375 162.3125 -116.9375 162.3125 C-117.33855921 139.19914936 -117.33855921 139.19914936 -114.9375 128.3125 C-117.11942887 135.6508147 -118.1412775 142.31097045 -118.20117188 149.95556641 C-118.44223121 166.21983947 -118.44223121 166.21983947 -124.98120117 172.76391602 C-132.63602298 179.3125 -132.63602298 179.3125 -135.9375 179.3125 C-139.15521625 152.91676264 -135.04532025 128.80404636 -119.10546875 107.0703125 C-104.61638097 88.63914858 -82.71131356 78.82241611 -59.9375 75.3125 C-58.27113488 75.28079728 -56.60369029 75.27265392 -54.9375 75.3125 C-52.05865879 61.63800427 -54.82714835 49.12345113 -61.75 37.1875 C-67.91435165 29.08578069 -75.24346702 24.34588751 -83.9375 19.3125 C-82.39743539 20.85256461 -80.614112 22.06544568 -78.875 23.375 C-71.76766708 28.91171404 -64.78307911 34.97424914 -60.9375 43.3125 C-60.9375 44.3025 -60.9375 45.2925 -60.9375 46.3125 C-67.29938793 49.19794644 -74.00475352 49.56028359 -80.6953125 47.4375 C-90.35731852 42.94629231 -95.51037042 36.31588365 -99.625 26.6875 C-102.39365479 20.22921366 -102.39365479 20.22921366 -106.26953125 14.4140625 C-106.81996094 13.72054688 -107.37039063 13.02703125 -107.9375 12.3125 C-107.6075 11.3225 -107.2775 10.3325 -106.9375 9.3125 C-103.79174793 9.25353132 -100.6461414 9.21858397 -97.5 9.1875 C-96.18225586 9.16236328 -96.18225586 9.16236328 -94.83789062 9.13671875 C-82.86182644 9.04833451 -71.02360769 12.11007859 -61.9375 20.3125 C-57.11903856 25.75723362 -55.0734835 31.07362343 -54.5 38.3125 C-54.1532389 42.56353418 -53.17516724 45.61548455 -50.9375 49.3125 C-47.99439164 44.89783745 -46.69847167 42.48292649 -47 37.125 C-47.1313873 27.23153627 -43.68852805 20.46858973 -36.9375 13.3125 C-26.31410576 3.75144519 -14.09433591 0.06931859 0 0 Z " fill="#8DB93E" transform="translate(579.9375,315.6875)"/>
<path d="M0 0 C1.73009567 4.13300632 0.154476 7.77071457 -1.125 11.8125 C-1.35582275 12.56370117 -1.58664551 13.31490234 -1.82446289 14.08886719 C-2.53864336 16.39618214 -3.26855345 18.69810933 -4 21 C-4.20963379 21.67659668 -4.41926758 22.35319336 -4.63525391 23.05029297 C-7.20991804 31.35801488 -10.25735394 39.22386415 -14.06201172 47.04150391 C-15.15389009 49.32131867 -16.20381105 51.61861483 -17.25390625 53.91796875 C-24.76287409 70.23400921 -33.47698126 85.18854121 -45 99 C-45.45068848 99.54253418 -45.90137695 100.08506836 -46.36572266 100.64404297 C-60.24455588 117.10071861 -77.04908816 127.7216695 -98 133 C-98.82516113 133.25583862 -98.82516113 133.25583862 -99.66699219 133.5168457 C-117.258407 137.15994009 -139.9352554 134.9884065 -157 130 C-157.67321289 129.81276367 -158.34642578 129.62552734 -159.04003906 129.43261719 C-168.59111603 126.73106684 -177.27340926 122.66583511 -186 118 C-184.55575365 114.76138697 -182.74227753 112.38030837 -180.375 109.75 C-179.74335938 109.04359375 -179.11171875 108.3371875 -178.4609375 107.609375 C-177.73777344 106.81273437 -177.73777344 106.81273437 -177 106 C-176.47792969 106.22139648 -175.95585937 106.44279297 -175.41796875 106.67089844 C-164.09840013 111.43364163 -153.02201041 115.44784137 -141 118 C-142.258125 117.67 -143.51625 117.34 -144.8125 117 C-150.3037661 115.34866962 -155.57895206 113.24668611 -160.875 111.0625 C-162.12373901 110.55879883 -162.12373901 110.55879883 -163.39770508 110.04492188 C-167.6903879 108.24407634 -170.97783296 106.69100729 -174 103 C-168.51530055 97.17408653 -162.8453004 91.88006789 -156.5625 86.9375 C-155.65830322 86.22243286 -155.65830322 86.22243286 -154.73583984 85.49291992 C-152.17222453 83.50859349 -150.09867849 82.03289283 -147 81 C-144.52229068 81.94575978 -142.15739147 82.96124645 -139.75 84.0625 C-123.95527909 90.91147724 -106.95964827 94.40483235 -90 97 C-90.8765625 96.8040625 -91.753125 96.608125 -92.65625 96.40625 C-109.89529067 92.34176074 -127.21593584 87.13865808 -143 79 C-141.50104727 74.98905094 -139.28227382 73.6369641 -135.65234375 71.50390625 C-134.03102539 70.54194336 -134.03102539 70.54194336 -132.37695312 69.56054688 C-131.24193359 68.90119141 -130.10691406 68.24183594 -128.9375 67.5625 C-127.82955078 66.90701172 -126.72160156 66.25152344 -125.58007812 65.57617188 C-123.4027325 64.29242641 -121.21971208 63.01825082 -119.03076172 61.75439453 C-117.14073405 60.66032825 -115.26020823 59.54946889 -113.39501953 58.41357422 C-109.11361677 55.86484232 -106.1051156 54.08604069 -101 55 C-97.63986999 56.09132428 -94.39089999 57.4059497 -91.125 58.75 C-76.49260185 64.73558011 -76.49260185 64.73558011 -61 67 C-62.06734375 66.74347656 -63.1346875 66.48695313 -64.234375 66.22265625 C-76.48684514 63.12549636 -87.62967794 58.47745121 -99 53 C-96.93468805 50.73931601 -95.16649771 49.43452213 -92.34228516 48.26660156 C-91.255681 47.811633 -91.255681 47.811633 -90.14712524 47.34747314 C-89.36896454 47.03171326 -88.59080383 46.71595337 -87.7890625 46.390625 C-86.98391205 46.0595575 -86.1787616 45.72848999 -85.34921265 45.38739014 C-83.64783436 44.69098886 -81.94479399 43.99863636 -80.24023438 43.31005859 C-77.63549691 42.25425482 -75.04046973 41.17675747 -72.4453125 40.09765625 C-70.78960945 39.42313504 -69.13337601 38.74991399 -67.4765625 38.078125 C-66.70245026 37.75426819 -65.92833801 37.43041138 -65.13076782 37.09674072 C-59.17987309 34.72924307 -56.29721683 35.06553892 -50.3125 37.5 C-45.63748278 39.33246373 -40.9796391 39.70407882 -36 40 C-36.89203125 39.80664062 -37.7840625 39.61328125 -38.703125 39.4140625 C-39.87359375 39.15367187 -41.0440625 38.89328125 -42.25 38.625 C-43.41015625 38.36976563 -44.5703125 38.11453125 -45.765625 37.8515625 C-48.46052401 37.14203595 -50.59525832 36.36903611 -53 35 C-53 34.34 -53 33.68 -53 33 C-51.79085937 32.50371094 -50.58171875 32.00742187 -49.3359375 31.49609375 C-30.37881169 23.65820088 -13.40183067 16.14837868 0 0 Z " fill="#6C9E3E" transform="translate(640,389)"/>
<path d="M0 0 C2.10095646 0.00843661 4.19912183 -0.020136 6.29980469 -0.05200195 C16.60281183 -0.10614178 25.78909954 1.31223878 33.48730469 8.66870117 C40.49969694 16.89199621 42.45245506 28.35870866 45.20776367 38.54296875 C46.41698717 42.95772975 47.68595735 47.35508556 48.94750977 51.75512695 C51.16105824 59.49614612 53.33021059 67.24975567 55.50683594 75.0012207 C55.70554291 75.70885559 55.90424988 76.41649048 56.10897827 77.14556885 C56.50830379 78.56771355 56.90757579 79.98987329 57.30679321 81.41204834 C58.47496996 85.57202204 59.64872557 89.73036524 60.82714844 93.88745117 C64.06944165 105.34654044 67.22994807 116.82830157 70.31982422 128.32940674 C70.72988785 129.85186073 71.14244088 131.37364665 71.55761719 132.89471436 C72.13917672 135.02841709 72.71088952 137.1645343 73.28027344 139.30151367 C73.612771 140.53538818 73.94526855 141.7692627 74.2878418 143.04052734 C75.60266632 149.3022164 75.17046499 152.76233451 71.94042969 158.25854492 C69.44724978 163.01449238 68.39034889 166.19325271 69.08496094 171.50854492 C70.46913085 174.43002694 72.33172418 175.65833058 75.00292969 177.44604492 C78.13198298 178.03649242 78.13198298 178.03649242 81.57557678 177.93811035 C82.54555348 177.94512883 82.54555348 177.94512883 83.53512567 177.9522891 C85.69415586 177.96319094 87.85201193 177.94575599 90.01098633 177.9284668 C91.56186771 177.93065339 93.11274744 177.93465125 94.66362 177.94032288 C97.99928418 177.94888111 101.33462646 177.94511395 104.67027473 177.93190002 C109.94365599 177.91156189 115.21671278 177.92154064 120.49009705 177.93615723 C131.68190365 177.96291073 142.87360483 177.95617987 154.06542969 177.94604492 C166.15125837 177.93510285 178.23692036 177.92982837 190.32272047 177.96333933 C195.5661505 177.97672903 200.80909492 177.97073086 206.05249608 177.94997406 C209.31191134 177.94100144 212.57113846 177.94844974 215.8305378 177.96038628 C217.34305962 177.96252065 218.85560898 177.95777496 220.36808395 177.94568062 C222.43165286 177.93010818 224.4937259 177.93901218 226.55726624 177.95397949 C228.28971384 177.95171734 228.28971384 177.95171734 230.05716038 177.94940948 C233.65094527 178.55529567 234.83001524 179.56810598 237.00292969 182.44604492 C237.50292969 185.44604492 237.50292969 185.44604492 237.00292969 188.44604492 C234.83003317 191.32311348 233.64697848 192.33605336 230.05550957 192.94940948 C228.89966425 192.95091759 227.74381893 192.95242569 226.552948 192.95397949 C225.90730113 192.96021945 225.26165426 192.96645942 224.59644234 192.97288847 C222.43452803 192.98883373 220.27373893 192.97620928 218.11181641 192.96362305 C216.56096235 192.96904386 215.01011344 192.97616629 213.45927429 192.98486328 C209.246036 193.00311373 205.03318913 192.99601974 200.8199439 192.98334694 C196.40567822 192.97321728 191.99144597 192.98261353 187.57717896 192.9888916 C180.15751133 192.9961727 172.73800284 192.98657302 165.31835938 192.9675293 C156.75688734 192.94580771 148.19579705 192.9527756 139.63433444 192.97483492 C132.27531428 192.99303334 124.91640858 192.99552415 117.55737317 192.98508024 C113.16622558 192.97886345 108.77525684 192.97795847 104.38412094 192.9912262 C100.24878826 193.00284714 96.11394295 192.99464606 91.97866249 192.97164917 C90.46706384 192.96639313 88.95542365 192.96782221 87.44384193 192.97669983 C77.98049672 193.02712011 69.31262303 192.63336406 61.60058594 186.55151367 C56.38045886 180.02967552 53.44666164 174.51663693 53.70605469 166.00854492 C54.25266624 161.29042414 55.63741121 156.70254 58.10449219 152.62573242 C61.0095432 145.57782605 57.70712483 137.80162326 55.75292969 130.88354492 C55.4301001 129.71476807 55.10727051 128.54599121 54.7746582 127.34179688 C53.86016916 124.04048454 52.93405742 120.74269703 52.00292969 117.44604492 C51.79587402 116.70805664 51.58881836 115.97006836 51.37548828 115.2097168 C50.27281819 111.28217046 49.13901584 107.36403024 48.00292969 103.44604492 C47.000374 99.94677441 46.00179063 96.44637162 45.00292969 92.94604492 C42.99262893 85.90601746 42.99262893 85.90601746 40.97558594 78.86791992 C39.44426604 73.53130295 37.92994666 68.19117567 36.44824219 62.84057617 C34.96056946 57.47088233 33.45411261 52.10674815 31.93505859 46.74584961 C31.31256387 44.54217264 30.69506492 42.33707847 30.08251953 40.13061523 C29.1986302 36.95959716 28.29125739 33.79619173 27.37792969 30.63354492 C27.11326904 29.66747314 26.8486084 28.70140137 26.57592773 27.70605469 C25.05012138 22.52110846 23.92112379 19.27749736 19.00292969 16.44604492 C15.58145199 15.30555236 12.86011621 15.28695122 9.25292969 15.23510742 C7.90916727 15.20705034 6.56541741 15.17838596 5.22167969 15.14916992 C3.10840048 15.10784882 0.99535897 15.07095081 -1.11816406 15.04467773 C-3.16162105 15.01708916 -5.20402033 14.971238 -7.24707031 14.92260742 C-8.46910156 14.90278809 -9.69113281 14.88296875 -10.95019531 14.86254883 C-13.99707031 14.44604492 -13.99707031 14.44604492 -15.8918457 13.03735352 C-17.26601186 11.05882137 -17.43002955 9.84356619 -17.43457031 7.44604492 C-17.45390625 6.76541992 -17.47324219 6.08479492 -17.49316406 5.38354492 C-16.99707031 3.44604492 -16.99707031 3.44604492 -15.39233398 1.85205078 C-10.80559278 -0.84033966 -5.19514086 -0.03179474 0 0 Z " fill="#3D6777" transform="translate(369.9970703125,360.553955078125)"/>
<path d="M0 0 C7.30430628 6.92112956 11.40350269 14.30660093 11.7578125 24.4453125 C11.68653237 32.77490531 8.60169661 39.31441123 4.3203125 46.3203125 C-4.10922195 53.85308796 -13.71922912 56.44743096 -24.75390625 56.21484375 C-33.36537375 55.61404369 -39.41756877 52.10519618 -45.63671875 46.23828125 C-52.19075608 38.65007629 -54.03551113 30.38004128 -53.96484375 20.59765625 C-53.23081711 12.88625275 -49.09855103 6.30486795 -43.6171875 0.9453125 C-30.05889156 -8.81290742 -13.82285927 -10.85197608 0 0 Z " fill="#90BD3E" transform="translate(476.6171875,652.0546875)"/>
<path d="M0 0 C2.22082235 -0.00426034 4.43945571 -0.04032526 6.65991211 -0.07861328 C16.20665347 -0.15049785 25.30695527 0.85938317 34.73217773 2.35888672 C50.0381886 4.75483989 65.13901131 4.93981406 80.60327148 4.93310547 C121.62108717 4.97072269 121.62108717 4.97072269 137.91577148 11.43310547 C138.68671143 11.72910645 139.45765137 12.02510742 140.25195312 12.33007812 C154.09345832 17.82636106 167.01922332 24.82913082 178.47827148 34.37060547 C179.03853027 34.83225098 179.59878906 35.29389648 180.17602539 35.76953125 C187.20531407 41.57966869 193.86823617 47.60705793 200.24780273 54.13232422 C202.8962477 56.7900457 205.66656018 59.25071536 208.52124023 61.68310547 C209.81859701 62.80178437 211.09287297 63.94784124 212.34155273 65.12060547 C217.39221366 69.82801759 222.80848793 73.86188457 228.41577148 77.87060547 C258.60369922 99.45580364 271.95853596 121.52954131 279.47827148 157.37060547 C283.06351665 174.41341254 287.94805984 189.72901435 294.44726562 205.90087891 C305.51657574 233.7981872 305.3146446 259.18505555 302.72827148 288.68310547 C302.64976959 289.61860229 302.5712677 290.55409912 302.49038696 291.51794434 C299.69628553 324.3375941 289.55810976 361.45417529 266.47827148 386.37060547 C265.48827148 386.37060547 264.49827148 386.37060547 263.47827148 386.37060547 C264.85295785 383.50496574 266.396331 380.85690987 268.13061523 378.19482422 C284.07115025 353.36494103 294.04543442 329.64625431 297.47827148 300.37060547 C297.61507324 299.20770996 297.751875 298.04481445 297.89282227 296.84667969 C302.09388517 260.06014574 300.40424628 230.02619098 286.48828125 195.51831055 C281.77114438 183.80631226 278.10943613 172.65517159 276.04077148 160.18310547 C269.65141773 124.17640926 255.40768994 101.52041415 225.48999023 80.24560547 C214.59953651 72.50128282 204.81913706 63.84924496 195.47827148 54.30810547 C189.06822779 47.77298022 182.40877798 41.96709522 175.04516602 36.53613281 C173.58560038 35.45044158 172.15368643 34.32784702 170.72436523 33.20263672 C149.3808692 16.75764797 122.72931779 9.35188235 96.13452148 9.12451172 C94.17373136 9.09999183 92.21294131 9.0754607 90.25215912 9.0503149 C85.46172715 8.99016476 80.67120709 8.93929543 75.88061523 8.89379883 C47.26593936 8.6146293 47.26593936 8.6146293 33.47827148 6.37060547 C23.72725443 4.88740995 14.18765262 4.02304275 4.33398438 4.05493164 C2.28064144 4.0581212 0.22870696 4.03439033 -1.82446289 4.00927734 C-10.14615778 3.96934467 -17.56326375 4.92596664 -25.52172852 7.37060547 C-26.2177417 7.56404541 -26.91375488 7.75748535 -27.63085938 7.95678711 C-45.60831327 12.99805862 -59.75511276 23.67543983 -74.08422852 35.23388672 C-85.44811805 44.38777338 -97.53958316 51.68538591 -110.20727539 58.9074707 C-147.88413658 80.41227201 -171.76782025 105.29498018 -187.45703125 146.03515625 C-192.50661295 159.07765404 -198.65258189 170.90868551 -205.64672852 182.99560547 C-213.69256251 196.94263051 -218.93602202 210.67236407 -222.52172852 226.37060547 C-222.70131104 227.143479 -222.88089355 227.91635254 -223.06591797 228.71264648 C-226.14101407 246.64439327 -223.79564908 266.16766975 -219.23608398 283.5546875 C-217.96024532 288.5839162 -216.9236467 293.66060889 -215.89672852 298.74560547 C-215.68717529 299.77935303 -215.47762207 300.81310059 -215.26171875 301.87817383 C-213.79975157 309.34471126 -212.75482846 316.8125485 -211.89672852 324.37060547 C-211.77765137 325.41724365 -211.65857422 326.46388184 -211.53588867 327.54223633 C-211.42035645 328.55938721 -211.30482422 329.57653809 -211.18579102 330.62451172 C-209.38513352 346.40231899 -206.02936143 360.49303045 -198.80297852 374.76513672 C-197.52172852 377.37060547 -197.52172852 377.37060547 -197.52172852 379.37060547 C-200.52172852 378.37060547 -200.52172852 378.37060547 -201.95141602 376.14013672 C-203.53212318 372.90609531 -205.05557753 369.65833799 -206.52172852 366.37060547 C-207.19461914 364.87013672 -207.19461914 364.87013672 -207.88110352 363.33935547 C-212.88453773 350.86165532 -214.1061531 337.4187183 -215.96899414 324.19580078 C-218.04926882 309.51016126 -220.74945062 295.11658374 -224.14794922 280.68652344 C-224.58627075 278.82278076 -224.58627075 278.82278076 -225.03344727 276.92138672 C-225.29601318 275.82479736 -225.5585791 274.72820801 -225.82910156 273.59838867 C-233.25942865 238.97154536 -224.038323 206.50166711 -206.79516602 176.58740234 C-199.43778924 163.77969891 -193.35856437 150.65581551 -187.89526367 136.94750977 C-179.90043122 117.00176697 -169.64959837 100.63015413 -154.52172852 85.37060547 C-153.67223633 84.50822266 -152.82274414 83.64583984 -151.94750977 82.75732422 C-139.58233264 70.88448187 -124.40794642 62.60873502 -109.57641602 54.24560547 C-98.25523048 47.84239429 -87.62667366 40.92667813 -77.41235352 32.86181641 C-60.57526575 19.58173737 -44.42464141 8.07765077 -23.52172852 2.37060547 C-22.91240479 2.1865918 -22.30308105 2.00257813 -21.67529297 1.81298828 C-14.56050927 -0.09745501 -7.31191663 -0.0015516 0 0 Z " fill="#94BF4A" transform="translate(468.521728515625,223.62939453125)"/>
<path d="M0 0 C0.97484848 0.00222061 1.94969696 0.00444122 2.9540863 0.00672913 C4.05515213 0.00680466 5.15621796 0.00688019 6.29064941 0.00695801 C8.08749428 0.01469994 8.08749428 0.01469994 9.92063904 0.02259827 C11.14000656 0.02401321 12.35937408 0.02542816 13.61569214 0.02688599 C17.52856349 0.03250485 21.4413786 0.04506055 25.35423279 0.05775452 C27.99941426 0.06276709 30.64459662 0.06733041 33.28977966 0.07142639 C39.79045005 0.08248041 46.2910874 0.09923688 52.79173279 0.12025452 C52.8186143 1.76600018 52.83807402 3.41186865 52.85423279 5.05775452 C52.86583435 5.97427795 52.87743591 6.89080139 52.88938904 7.83509827 C52.79173279 10.12025452 52.79173279 10.12025452 51.79173279 11.12025452 C50.44078297 11.21294451 49.08506188 11.23772778 47.73094177 11.23377991 C46.87012497 11.23370438 46.00930817 11.23362885 45.12240601 11.23355103 C44.18699478 11.22838974 43.25158356 11.22322845 42.28782654 11.21791077 C41.33481155 11.21649582 40.38179657 11.21508087 39.39990234 11.21362305 C36.34298114 11.20800604 33.28613202 11.19545067 30.22923279 11.18275452 C28.16217655 11.17774171 26.09511917 11.17317842 24.02806091 11.16908264 C18.94923446 11.1588801 13.87056473 11.13930808 8.79173279 11.12025452 C8.79173279 18.71025452 8.79173279 26.30025452 8.79173279 34.12025452 C21.99173279 34.12025452 35.19173279 34.12025452 48.79173279 34.12025452 C50.16125952 36.85930797 49.9179464 39.09112784 49.79173279 42.12025452 C49.29673279 43.11025452 49.29673279 43.11025452 48.79173279 44.12025452 C35.59173279 44.12025452 22.39173279 44.12025452 8.79173279 44.12025452 C8.79173279 52.04025452 8.79173279 59.96025452 8.79173279 68.12025452 C11.88419373 68.10865295 14.97665466 68.09705139 18.16282654 68.08509827 C21.14467771 68.0773085 24.12652776 68.07123128 27.10838318 68.06532288 C29.18716435 68.06028163 31.26594195 68.05344877 33.3447113 68.04481506 C36.32575865 68.03274029 39.30675928 68.02702428 42.28782654 68.02259827 C43.69094337 68.01485634 43.69094337 68.01485634 45.12240601 68.00695801 C45.98322281 68.00688248 46.84403961 68.00680695 47.73094177 68.00672913 C48.49261154 68.00450851 49.25428131 68.0022879 50.03903198 68 C51.79173279 68.12025452 51.79173279 68.12025452 52.79173279 69.12025452 C52.8637879 70.80634418 52.87559346 72.49526111 52.85423279 74.18275452 C52.84520935 75.10185608 52.83618591 76.02095764 52.82688904 76.96791077 C52.81528748 77.6781842 52.80368591 78.38845764 52.79173279 79.12025452 C44.97720527 79.14552015 37.16268821 79.16308557 29.34812927 79.17518616 C26.68731798 79.18022835 24.02650947 79.18706188 21.3657074 79.19569397 C17.55067763 79.2077646 13.73568435 79.21348381 9.92063904 79.21791077 C8.12379417 79.22565269 8.12379417 79.22565269 6.29064941 79.23355103 C4.63905067 79.23366432 4.63905067 79.23366432 2.9540863 79.23377991 C1.97923782 79.23600052 1.00438934 79.23822113 0 79.24050903 C-2.20826721 79.12025452 -2.20826721 79.12025452 -3.20826721 78.12025452 C-3.30854517 75.72216302 -3.34445397 73.35285953 -3.33766174 70.95423889 C-3.33941406 70.20467422 -3.34116638 69.45510956 -3.3429718 68.68283081 C-3.34739041 66.19319883 -3.34445231 63.70363728 -3.34107971 61.21400452 C-3.34175275 59.4914702 -3.34272277 57.76893597 -3.34397888 56.04640198 C-3.34545587 52.43152464 -3.34330128 48.81667196 -3.33863831 45.20179749 C-3.33294101 40.55758959 -3.33622002 35.91343948 -3.34221077 31.2692337 C-3.34581637 27.71088726 -3.3446778 24.15255461 -3.34208298 20.59420776 C-3.3414137 18.8813069 -3.34224214 17.1684048 -3.34456253 15.45550537 C-3.34708904 13.0657263 -3.34324851 10.67604211 -3.33766174 8.28627014 C-3.33968597 7.5714296 -3.34171021 6.85658905 -3.34379578 6.12008667 C-3.31794278 0.18068357 -3.31794278 0.18068357 0 0 Z " fill="#92BD45" transform="translate(299.20826721191406,628.8797454833984)"/>
<path d="M0 0 C4.85145372 3.23781803 7.64006876 6.82427849 9.796875 12.19921875 C10.20204566 15.52351885 10.17056295 18.81114501 10.125 22.15625 C10.12312683 23.09981857 10.12125366 24.04338715 10.11932373 25.01554871 C10.11262555 26.99990397 10.09875575 28.98424654 10.078125 30.96850586 C10.04680186 34.01884104 10.0371347 37.06866011 10.03125 40.11914062 C10.02208633 42.04818344 10.01171259 43.97722097 10 45.90625 C9.99362518 47.28113335 9.99362518 47.28113335 9.98712158 48.68379211 C9.91406761 55.08202614 9.91406761 55.08202614 8.796875 56.19921875 C7.27759462 56.27101839 5.75520018 56.28313882 4.234375 56.26171875 C3.40808594 56.25269531 2.58179688 56.24367188 1.73046875 56.234375 C1.09238281 56.22277344 0.45429687 56.21117187 -0.203125 56.19921875 C-0.698125 52.73421875 -0.698125 52.73421875 -1.203125 49.19921875 C-1.863125 49.19921875 -2.523125 49.19921875 -3.203125 49.19921875 C-3.203125 49.85921875 -3.203125 50.51921875 -3.203125 51.19921875 C-10.78473693 57.1165744 -18.83791515 58.18306393 -28.203125 57.19921875 C-33.39191671 55.77400787 -37.46539882 52.96648818 -40.34375 48.3828125 C-42.19741703 43.67281308 -42.20867432 39.11596313 -41.203125 34.19921875 C-38.01641983 27.93744458 -32.978463 25.15339257 -26.53515625 22.890625 C-22.87900509 21.80664049 -19.70765696 21.07418638 -15.875 21.1015625 C-14.67617188 21.10639648 -14.67617188 21.10639648 -13.453125 21.11132812 C-12.628125 21.11970703 -11.803125 21.12808594 -10.953125 21.13671875 C-10.11265625 21.14123047 -9.2721875 21.14574219 -8.40625 21.15039062 C-6.33851099 21.16213914 -4.27080876 21.18007353 -2.203125 21.19921875 C-2.43230468 19.59194548 -2.68733302 17.98834459 -2.953125 16.38671875 C-3.09234375 15.49339844 -3.2315625 14.60007812 -3.375 13.6796875 C-4.42089007 10.54695073 -5.27990158 9.71442289 -8.203125 8.19921875 C-13.7330401 7.25940559 -19.81294454 6.63244974 -24.65234375 9.8046875 C-25.94575834 11.07777338 -27.21578287 12.37522048 -28.45703125 13.69921875 C-30.203125 15.19921875 -30.203125 15.19921875 -34.078125 15.26171875 C-37.203125 14.19921875 -37.203125 14.19921875 -39.203125 12.19921875 C-38.64519765 7.42257761 -35.69257576 4.28109022 -32.203125 1.19921875 C-22.99877685 -4.69087717 -9.61447531 -5.15061178 0 0 Z " fill="#7BB8A3" transform="translate(619.203125,651.80078125)"/>
<path d="M0 0 C3.2643543 2.76457913 6.11971517 5.84829712 8.015625 9.70703125 C8.16796875 12.453125 8.16796875 12.453125 8.015625 14.70703125 C1.78525851 17.55519879 1.78525851 17.55519879 -1.984375 16.70703125 C-3.17338251 15.02260394 -4.35472127 13.33117979 -5.46484375 11.59375 C-8.91895499 7.30496921 -14.62809595 4.71385062 -19.984375 3.70703125 C-28.20630182 2.87412984 -34.38672794 3.51007513 -40.984375 8.70703125 C-47.96215097 15.14923231 -50.84300112 22.81184198 -51.296875 32.20703125 C-51.20757858 39.66328245 -49.31151095 48.12481337 -44.796875 54.20703125 C-37.28052315 60.8882329 -30.78648601 62.65130801 -20.80078125 62.109375 C-14.3123441 61.42533301 -10.16028318 60.29701151 -5.890625 55.21484375 C-4.14161667 52.76484399 -2.52024177 50.29479391 -0.984375 47.70703125 C2.96570559 48.39082671 5.65019518 49.49546308 9.015625 51.70703125 C7.96054389 58.3012882 4.06532267 63.27960268 -0.98046875 67.35546875 C-11.56662581 74.49544992 -23.68016498 74.90912557 -36.0078125 73.31640625 C-45.54288087 70.90949579 -53.82243333 64.37980279 -58.83984375 56.0078125 C-64.34646252 44.9381932 -66.10162329 31.40992197 -62.859375 19.39453125 C-59.0985353 8.86418008 -52.90770824 0.70643316 -42.984375 -4.60546875 C-28.22882219 -11.25545677 -13.10201503 -9.30808621 0 0 Z " fill="#7CB7A4" transform="translate(559.984375,635.29296875)"/>
<path d="M0 0 C-0.66 1.65 -1.32 3.3 -2 5 C-0.686298 4.3566152 0.62592898 3.71021785 1.9375 3.0625 C2.66839844 2.70285156 3.39929688 2.34320312 4.15234375 1.97265625 C5.96249027 1.13628173 5.96249027 1.13628173 7 0 C8.92578125 -0.16796875 8.92578125 -0.16796875 11.3125 -0.1875 C12.09238281 -0.20167969 12.87226563 -0.21585938 13.67578125 -0.23046875 C16.2032668 0.02015587 17.81718031 0.73626228 20 2 C19.67 2.66 19.34 3.32 19 4 C17.35 4 15.7 4 14 4 C13.67 4.66 13.34 5.32 13 6 C14.65 5.67 16.3 5.34 18 5 C17.34 5.99 16.68 6.98 16 8 C12.375 8.6875 12.375 8.6875 9 9 C9 8.01 9 7.02 9 6 C8.34 6 7.68 6 7 6 C7.34786708 7.97536745 7.34786708 7.97536745 8 10 C8.66 10.33 9.32 10.66 10 11 C9.01 11.66 8.02 12.32 7 13 C7 14.32 7 15.64 7 17 C6.34 17 5.68 17 5 17 C4.77825067 18.45635371 4.57301302 19.91522956 4.375 21.375 C4.25898438 22.18710937 4.14296875 22.99921875 4.0234375 23.8359375 C4.01570313 24.55007813 4.00796875 25.26421875 4 26 C5.89082286 28.28926626 5.89082286 28.28926626 9 28.4375 C9.99 28.623125 10.98 28.80875 12 29 C14.49118953 32.7367843 14.2065226 34.74451819 14.125 39.1875 C14.10695313 40.45980469 14.08890625 41.73210938 14.0703125 43.04296875 C14.04710937 44.01878906 14.02390625 44.99460937 14 46 C18.86308548 44.28787239 20.49290269 42.58193646 23 38 C23.73075648 35.6859378 24.40138258 33.35171131 25 31 C25.391875 30.071875 25.78375 29.14375 26.1875 28.1875 C26.455625 27.465625 26.72375 26.74375 27 26 C26.505 25.01 26.505 25.01 26 24 C26.99 24 27.98 24 29 24 C29 23.01 29 22.02 29 21 C30.65 21.33 32.3 21.66 34 22 C34 23.32 34 24.64 34 26 C34.66 26 35.32 26 36 26 C35.56019856 35.49971107 32.79448889 42.01460228 25.77734375 48.52734375 C18.42090233 54.62268092 8.96351822 54.37505564 -0.1875 53.875 C-6.73894342 53.07762037 -11.66515727 49.83872973 -15.828125 44.77734375 C-20.42578151 38.09288684 -22.27370082 33.07417426 -22 25 C-20.06640625 25.73046875 -20.06640625 25.73046875 -18 27 C-17.27734375 28.98828125 -17.27734375 28.98828125 -16.9375 31.3125 C-16.23697605 35.15923679 -15.21094766 37.72779747 -13 41 C-11.9849911 42.99242489 -10.98126556 44.99074195 -10 47 C-7.15015702 42.34525646 -5.2976183 38.29860806 -4 33 C-4.78375 32.9175 -5.5675 32.835 -6.375 32.75 C-7.24125 32.5025 -8.1075 32.255 -9 32 C-9.268125 31.360625 -9.53625 30.72125 -9.8125 30.0625 C-10.78303782 27.84678121 -10.78303782 27.84678121 -12.82421875 27.3984375 C-14.2512585 27.09612028 -15.6854274 26.82536206 -17.125 26.58984375 C-19 26 -19 26 -21 23 C-20.875 20.9375 -20.875 20.9375 -20 19 C-18 17.875 -18 17.875 -16 17 C-15.67 16.34 -15.34 15.68 -15 15 C-14.34 15 -13.68 15 -13 15 C-12.67 14.01 -12.34 13.02 -12 12 C-10.68 12 -9.36 12 -8 12 C-8 11.34 -8 10.68 -8 10 C-7.01 10 -6.02 10 -5 10 C-5.33 8.68 -5.66 7.36 -6 6 C-6.78375 6.495 -7.5675 6.99 -8.375 7.5 C-11 9 -11 9 -13 9 C-11.9024777 6.00675737 -11.32317108 5.15389099 -8.375 3.75 C-7.59125 3.5025 -6.8075 3.255 -6 3 C-6 2.34 -6 1.68 -6 1 C-3 0 -3 0 0 0 Z " fill="#F5F8F1" transform="translate(449,650)"/>
<path d="M0 0 C5.50393179 2.90542124 10.44318818 6.44687289 13 12.3125 C12.67 13.6325 12.34 14.9525 12 16.3125 C9.03 16.9725 6.06 17.6325 3 18.3125 C0 14.5625 0 14.5625 0 12.3125 C-5.89167789 9.92398194 -10.61865018 8.52575824 -17 9.3125 C-22.3035228 12.01429463 -26.09832298 15.60746895 -28 21.3125 C-28.94749961 33.06132685 -28.94749961 33.06132685 -24 43.3125 C-20.37924 46.67394827 -16.81332911 47.56669815 -11.9375 47.75 C-7.6078366 47.54007693 -4.58715401 46.89858777 -1 44.3125 C0.88299486 42.0648934 2.40983782 39.79128222 4 37.3125 C7.73487777 37.8104837 9.81237635 38.18741756 13 40.3125 C12.753873 45.35810346 11.12785786 48.09643554 7.81640625 51.703125 C0.78997029 57.92869837 -7.33592802 58.74785248 -16.390625 58.64453125 C-24.02814647 57.9419454 -29.15810995 54.52894916 -34.4375 49.125 C-40.48906808 41.70418824 -41.6090955 33.89699054 -41.34375 24.48828125 C-40.41486481 15.90664875 -36.48480395 8.97362926 -30 3.3125 C-21.15898126 -2.29439608 -9.8739227 -4.17872497 0 0 Z " fill="#93BE45" transform="translate(402,650.6875)"/>
<path d="M0 0 C2.57161458 0.03255208 5.14322917 0.06510417 7.71484375 0.09765625 C7.71484375 5.37765625 7.71484375 10.65765625 7.71484375 16.09765625 C10.90140625 16.06671875 10.90140625 16.06671875 14.15234375 16.03515625 C16.33983986 16.01391842 18.52844922 16.02506679 20.71484375 16.09765625 C21.71484375 17.09765625 21.71484375 17.09765625 21.8125 19.1640625 C21.77994792 21.47526042 21.74739583 23.78645833 21.71484375 26.09765625 C17.42484375 26.09765625 13.13484375 26.09765625 8.71484375 26.09765625 C8.8082644 31.04591241 8.91433135 35.99367259 9.03222656 40.94140625 C9.07055479 42.62524954 9.10540087 44.3091758 9.13671875 45.99316406 C9.18228662 48.41110931 9.24029298 50.82848153 9.30078125 53.24609375 C9.31233246 54.00135345 9.32388367 54.75661316 9.33578491 55.53475952 C9.31814441 59.77590823 9.31814441 59.77590823 11.71484375 63.09765625 C14.14737036 63.55928052 14.14737036 63.55928052 16.83984375 63.72265625 C17.74992188 63.79742188 18.66 63.8721875 19.59765625 63.94921875 C20.29632812 63.99820313 20.995 64.0471875 21.71484375 64.09765625 C21.74173591 65.57672517 21.76118996 67.05593108 21.77734375 68.53515625 C21.78894531 69.35886719 21.80054688 70.18257812 21.8125 71.03125 C21.71484375 73.09765625 21.71484375 73.09765625 20.71484375 74.09765625 C18.30130543 74.27919242 15.94359556 74.37580196 13.52734375 74.41015625 C12.21378906 74.44753906 10.90023437 74.48492188 9.546875 74.5234375 C5.04813075 74.02357703 3.07652584 73.10906177 -0.28515625 70.09765625 C-3.16831783 64.67765368 -3.69975956 60.39424801 -3.578125 54.3203125 C-3.57388016 53.50896347 -3.56963531 52.69761444 -3.56526184 51.86167908 C-3.54859492 49.29415369 -3.51096673 46.72744061 -3.47265625 44.16015625 C-3.45759385 42.40951662 -3.44390818 40.65886457 -3.43164062 38.90820312 C-3.39873093 34.63771233 -3.34703351 30.36782156 -3.28515625 26.09765625 C-6.58515625 26.09765625 -9.88515625 26.09765625 -13.28515625 26.09765625 C-14.66640643 23.33515589 -14.47594931 21.15034526 -14.28515625 18.09765625 C-12.28515625 16.09765625 -12.28515625 16.09765625 -10.12109375 15.90234375 C-8.90292969 15.93714844 -8.90292969 15.93714844 -7.66015625 15.97265625 C-6.43425781 15.99972656 -6.43425781 15.99972656 -5.18359375 16.02734375 C-4.24386719 16.06214844 -4.24386719 16.06214844 -3.28515625 16.09765625 C-3.29675781 15.02644531 -3.30835938 13.95523438 -3.3203125 12.8515625 C-3.32968924 11.45442882 -3.33878956 10.05729326 -3.34765625 8.66015625 C-3.36022461 7.59958008 -3.36022461 7.59958008 -3.37304688 6.51757812 C-3.38169213 4.71072066 -3.33735636 2.90378022 -3.28515625 1.09765625 C-2.28515625 0.09765625 -2.28515625 0.09765625 0 0 Z " fill="#79B5A3" transform="translate(696.28515625,633.90234375)"/>
<path d="M0 0 C1 1 1 1 1.1328125 3.25 C1.13023437 4.1575 1.12765625 5.065 1.125 6 C1.12886719 7.36125 1.12886719 7.36125 1.1328125 8.75 C1 11 1 11 0 12 C-1.72792703 12.10597167 -3.45756106 12.18463119 -5.1875 12.25 C-10.83845855 12.70501225 -13.1707395 13.876181 -17 18 C-19.53562784 21.80344176 -19.33195249 24.93914509 -19.37890625 29.3515625 C-19.39590073 30.16619965 -19.4128952 30.98083679 -19.43040466 31.82015991 C-19.48353506 34.42169462 -19.52384296 37.02321308 -19.5625 39.625 C-19.60638044 42.2338479 -19.65302053 44.84257013 -19.70530701 47.45126343 C-19.73734649 49.07488582 -19.76421067 50.69861977 -19.78553772 52.32241821 C-19.88824797 57.88824797 -19.88824797 57.88824797 -21 59 C-22.66429051 59.09823937 -24.33281931 59.12973631 -26 59.125 C-27.36125 59.12886719 -27.36125 59.12886719 -28.75 59.1328125 C-31 59 -31 59 -32 58 C-32.09887792 56.25617465 -32.12799032 54.50834457 -32.12939453 52.76171875 C-32.13254669 51.64385986 -32.13569885 50.52600098 -32.13894653 49.37426758 C-32.1369223 48.15763428 -32.13489807 46.94100098 -32.1328125 45.6875 C-32.13376923 44.44830811 -32.13472595 43.20911621 -32.13571167 41.93237305 C-32.13639374 39.30611719 -32.13503538 36.67995367 -32.13037109 34.05371094 C-32.12467381 30.68071286 -32.12795302 27.30779435 -32.13394356 23.93479919 C-32.1384177 20.72736323 -32.13528882 17.519937 -32.1328125 14.3125 C-32.13483673 13.0958667 -32.13686096 11.8792334 -32.13894653 10.62573242 C-32.13579437 9.50787354 -32.13264221 8.39001465 -32.12939453 7.23828125 C-32.12859894 6.24868408 -32.12780334 5.25908691 -32.12698364 4.23950195 C-32 2 -32 2 -31 1 C-29.50261876 0.9020943 -28.00057108 0.87025136 -26.5 0.875 C-25.6853125 0.87242187 -24.870625 0.86984375 -24.03125 0.8671875 C-22 1 -22 1 -21 2 C-20.85884839 4.67058851 -20.95752893 7.32432238 -21 10 C-20.34 10 -19.68 10 -19 10 C-18.79375 9.443125 -18.5875 8.88625 -18.375 8.3125 C-13.88848149 0.76699159 -7.98239339 -0.25749656 0 0 Z " fill="#79B4A2" transform="translate(677,649)"/>
<path d="M0 0 C3.125 -0.1875 3.125 -0.1875 6 0 C6 0.99 6 1.98 6 3 C6.598125 2.505 7.19625 2.01 7.8125 1.5 C10 0 10 0 13 0 C13.33 1.32 13.66 2.64 14 4 C13.01 4 12.02 4 11 4 C11 4.66 11 5.32 11 6 C10.360625 6.12375 9.72125 6.2475 9.0625 6.375 C8.381875 6.58125 7.70125 6.7875 7 7 C6.67 7.66 6.34 8.32 6 9 C5.34 9 4.68 9 4 9 C3.67 9.99 3.34 10.98 3 12 C2.34 12 1.68 12 1 12 C0.67 13.32 0.34 14.64 0 16 C-0.33 15.34 -0.66 14.68 -1 14 C-0.67 15.98 -0.34 17.96 0 20 C0.9075 19.938125 1.815 19.87625 2.75 19.8125 C6.30029087 20.01732447 7.56086737 20.46705458 10 23 C10 23.99 10 24.98 10 26 C11.65 26.33 13.3 26.66 15 27 C13.44191344 37.55808656 13.44191344 37.55808656 9 42 C6.16973395 38.63063566 4.68908184 35.03910875 3 31 C2.34 30.01 1.68 29.02 1 28 C0.92094936 25.66800612 0.91201231 23.33167378 1 21 C0.01 20.67 -0.98 20.34 -2 20 C-2.98081895 27.19267232 0.12694857 33.04339813 4 39 C6.47768959 41.25567146 6.47768959 41.25567146 9 43 C9.7425 43.556875 10.485 44.11375 11.25 44.6875 C19.65433075 48.69865786 31.3389942 47.55554362 40 45 C47.52455522 40.42114283 51.7849166 34.44589864 54 26 C54.76605458 22.59880678 54.76605458 22.59880678 55 20 C54.34 20 53.68 20 53 20 C53 18.35 53 16.7 53 15 C54.32 14.34 55.64 13.68 57 13 C59.55007506 18.10015012 58.5908765 24.96012761 57.05859375 30.25 C52.55945803 41.53309899 47.00585881 46.1868965 36 51 C28.07106958 53.64297681 17.7988283 52.96208801 10.27734375 49.3828125 C1.19049661 43.86524151 -3.67029296 36.98912113 -7 27 C-8.00497046 15.95968161 -6.04546544 9.06819817 0 0 Z " fill="#8FB752" transform="translate(430,656)"/>
<path d="M0 0 C0.99 3.63 1.98 7.26 3 11 C1.68 10.67 0.36 10.34 -1 10 C-0.09808661 16.1787798 0.91119681 19.92895745 6 24 C8.82001327 25.41000664 10.87007255 25.24548451 14 25 C15.2684375 24.195625 15.2684375 24.195625 16.5625 23.375 C17.366875 22.92125 18.17125 22.4675 19 22 C21.375 22.75 21.375 22.75 24 24 C26.32597511 24.3813074 28.65912158 24.72460254 31 25 C27.97872609 31.04254782 23.24784266 33.84333727 17 36 C9.95182691 36.90604318 3.75427185 36.37033305 -2 32 C-6.79865789 27.37204535 -10.83109793 23.17535888 -11.1953125 16.328125 C-11.18211335 14.96861204 -11.15840107 13.60916668 -11.125 12.25 C-11.11597656 11.55261719 -11.10695313 10.85523438 -11.09765625 10.13671875 C-11.07419888 8.42433042 -11.03833104 6.71211996 -11 5 C-11.66 5 -12.32 5 -13 5 C-13 4.34 -13 3.68 -13 3 C-8.06632653 0.99308198 -5.44479395 0 0 0 Z " fill="#42697B" transform="translate(562,569)"/>
<path d="M0 0 C1.8359375 0.9140625 1.8359375 0.9140625 3.5859375 4.2265625 C5.78219652 10.98521596 6.19997045 18.70436336 3.2734375 25.2890625 C0.95299315 29.25039249 -2.24350962 32.51261016 -6.1640625 34.9140625 C-7.1540625 34.9140625 -8.1440625 34.9140625 -9.1640625 34.9140625 C-8.53215642 29.1215901 -7.49391 23.58807851 -6.1640625 17.9140625 C-7.8140625 22.8640625 -9.4640625 27.8140625 -11.1640625 32.9140625 C-14.1640625 31.9140625 -14.1640625 31.9140625 -15.8515625 28.7890625 C-17.62819991 24.08001819 -18.19987822 20.30742458 -16.1328125 15.53125 C-13.15717878 10.12551541 -6.98748712 -0.27748144 0 0 Z " fill="#8DBB43" transform="translate(378.1640625,228.0859375)"/>
<path d="M0 0 C0.61923176 7.12116521 -1.23110364 13.43061701 -5.6484375 19.125 C-9.5337826 23.1969774 -12.73442078 25.8639342 -18.53125 26.10546875 C-21.02536725 26.12298362 -23.5075694 26.08711408 -26 26 C-24.52278578 22.54798361 -22.56205999 20.35038064 -19.875 17.75 C-19.15054688 17.04359375 -18.42609375 16.3371875 -17.6796875 15.609375 C-17.12539063 15.07828125 -16.57109375 14.5471875 -16 14 C-16.53109375 14.40992188 -17.0621875 14.81984375 -17.609375 15.2421875 C-18.66898438 16.05042969 -18.66898438 16.05042969 -19.75 16.875 C-20.79414062 17.67550781 -20.79414062 17.67550781 -21.859375 18.4921875 C-23.84722603 19.89238914 -25.79843386 20.97855265 -28 22 C-28.45884065 16.84059185 -28.69606963 13.1746175 -26 8.625 C-18.57818318 2.13091029 -9.78978356 -0.20866324 0 0 Z " fill="#8EBB3F" transform="translate(554,196)"/>
<path d="M0 0 C0.99 0.33 1.98 0.66 3 1 C4.68424698 5.24159857 5.76135107 9.60066068 7 14 C6.34 9.38 5.68 4.76 5 0 C10.43801956 1.08760391 11.51653399 1.95164761 15 6 C17.88722835 10.77851381 17.57422964 15.57899871 17 21 C14.33751962 31.66248038 14.33751962 31.66248038 11 35 C-2.40857633 23.7068544 -2.40857633 23.7068544 -3.30078125 15.09765625 C-3.32341298 9.23603874 -3.2954469 4.94317035 0 0 Z " fill="#8BB943" transform="translate(758,580)"/>
<path d="M0 0 C2.60563824 1.00047713 5.01464791 2.01566406 7.5 3.25 C8.11133789 3.54970703 8.72267578 3.84941406 9.35253906 4.15820312 C12.72609172 5.94052876 14.76163408 7.31749082 16 11 C9.00172443 16.61679779 2.84556302 20.7055218 -6.4296875 20.421875 C-10.81631466 19.70188148 -14.5689249 17.8099322 -18 15 C-18.66 13.68 -19.32 12.36 -20 11 C-13.565 10.505 -13.565 10.505 -7 10 C-10.96 9.67 -14.92 9.34 -19 9 C-14.88009908 0.76019816 -8.7227211 -1.37261093 0 0 Z " fill="#8FBB3F" transform="translate(699,266)"/>
<path d="M0 0 C6.5088346 3.47072298 10.43080469 8.1859615 13.2109375 15.00390625 C13.5859375 18.62890625 13.5859375 18.62890625 13.2109375 21.00390625 C14.5309375 21.00390625 15.8509375 21.00390625 17.2109375 21.00390625 C15.7851289 24.45586392 14.11347416 26.10533185 11.0859375 28.25390625 C10.36148438 28.7746875 9.63703125 29.29546875 8.890625 29.83203125 C8.33632813 30.21875 7.78203125 30.60546875 7.2109375 31.00390625 C3.92304926 27.8937417 1.37357762 24.987717 -0.7890625 21.00390625 C0.2009375 21.00390625 1.1909375 21.00390625 2.2109375 21.00390625 C1.22826147 16.19862374 1.22826147 16.19862374 -1.5078125 12.28515625 C-4.37514348 10.67473748 -6.27291177 10.69975801 -9.5390625 10.81640625 C-10.52390625 10.84347656 -11.50875 10.87054687 -12.5234375 10.8984375 C-13.27109375 10.93324219 -14.01875 10.96804688 -14.7890625 11.00390625 C-15.2221875 10.03453125 -15.6553125 9.06515625 -16.1015625 8.06640625 C-17.4905486 4.7265886 -17.4905486 4.7265886 -20.7890625 4.00390625 C-20.7890625 3.34390625 -20.7890625 2.68390625 -20.7890625 2.00390625 C-14.50664145 -2.18437445 -7.07562006 -2.52700716 0 0 Z " fill="#456B7D" transform="translate(582.7890625,559.99609375)"/>
<path d="M0 0 C5.37757043 2.97248381 9.65623445 7.23404076 11.40234375 13.24609375 C11.51707031 13.82488281 11.63179688 14.40367187 11.75 15 C12.74 15 13.73 15 14.75 15 C13.52472971 19.05281712 12.05119506 22.44360764 9.75 26 C6.45 24.35 3.15 22.7 -0.25 21 C0.08 19.68 0.41 18.36 0.75 17 C-0.88515677 13.97193191 -2.33131277 11.67370397 -5.125 9.625 C-7.99837179 8.77989065 -10.26880682 8.68945904 -13.25 9 C-15.59261608 10.37926773 -15.59261608 10.37926773 -17.25 12 C-20.36198065 10.50163895 -23.3034615 8.80066242 -26.25 7 C-24.74364535 2.78220697 -22.00987578 1.2252326 -18.25 -1 C-11.96947278 -3.09350907 -6.03309596 -2.71991316 0 0 Z " fill="#94BE43" transform="translate(475.25,561)"/>
<path d="M0 0 C5.20474701 0.17143435 8.83885061 0.91844578 12.75 4.4375 C14.9834557 6.96663778 16.89173828 9.62484404 18.75 12.4375 C19.389375 13.345 20.02875 14.2525 20.6875 15.1875 C21.75 17.4375 21.75 17.4375 21.4375 19.75 C21.210625 20.306875 20.98375 20.86375 20.75 21.4375 C14.67084798 23.23763725 7.28882046 23.74483495 1.296875 21.53125 C-3.1103715 18.90708796 -6.39438074 15.67766193 -9.25 11.4375 C-10.0625 8.0625 -10.0625 8.0625 -10.25 5.4375 C-6.25 6.77083333 -2.25 8.10416667 1.75 9.4375 C-1.55 7.4575 -4.85 5.4775 -8.25 3.4375 C-4.90677075 0.09427075 -4.45524242 0.00622241 0 0 Z " fill="#8CB841" transform="translate(772.25,400.5625)"/>
<path d="M0 0 C4.39833153 -0.30333321 7.11662067 -0.38106559 11.1875 1.375 C16.18351851 6.03795061 18.97966406 11.08403075 19.30859375 17.98828125 C19.36149362 21.66655638 19.22032838 25.32786036 19 29 C10.95829304 28.70757429 5.67383237 25.81716464 0.09765625 20.0234375 C-4.59064585 13.95622302 -4.68153944 8.45907054 -4 1 C-0.23511958 2.72154788 2.15063897 4.99234114 5 8 C2.525 4.04 2.525 4.04 0 0 Z " fill="#8DB844" transform="translate(780,498)"/>
<path d="M0 0 C6.55015298 -0.58223582 12.18577587 0.92640134 18 4 C22.17713418 7.63358553 26.67143853 12.39896631 27.1953125 18.140625 C27.13020833 20.09375 27.06510417 22.046875 27 24 C23.82431967 22.57911395 21.50601536 20.83591377 18.9375 18.5 C16.66567993 16.44184439 14.56292743 14.70861829 12 13 C12.7940625 13.77085937 13.588125 14.54171875 14.40625 15.3359375 C15.43776041 16.34869317 16.46899627 17.36172852 17.5 18.375 C18.02464844 18.88289062 18.54929688 19.39078125 19.08984375 19.9140625 C20.43153181 21.23832604 21.71995815 22.61605865 23 24 C23 24.66 23 25.32 23 26 C18.62677881 26.56457569 14.70881613 26.86888956 10.6953125 24.828125 C3.78921895 19.35537162 1.38191956 11.8245351 0.25 3.3125 C0.1675 2.219375 0.085 1.12625 0 0 Z " fill="#8BB944" transform="translate(218,519)"/>
<path d="M0 0 C0.86010847 9.67144186 0.86010847 9.67144186 -2.1875 13.5 C-6.7349805 17.54220489 -10.54250683 18.30524342 -16.5625 18.375 C-17.67753906 18.40335938 -18.79257812 18.43171875 -19.94140625 18.4609375 C-23.64534615 17.90274477 -24.78606755 16.97133039 -27 14 C-27.70222603 9.70861868 -27.54417484 7.78993122 -25.0625 4.1875 C-17.642031 -1.112835 -8.7782818 -0.24421804 0 0 Z " fill="#F9FAF9" transform="translate(617,681)"/>
<path d="M0 0 C3.23046875 0.8203125 3.23046875 0.8203125 4.9296875 2.390625 C5.91796875 4.2578125 5.91796875 4.2578125 7.23046875 7.8203125 C8.22046875 8.4803125 9.21046875 9.1403125 10.23046875 9.8203125 C9.96234375 10.4803125 9.69421875 11.1403125 9.41796875 11.8203125 C8.78078922 13.4300292 8.15499462 15.04579146 7.60546875 16.6875 C5.86237203 21.77813474 3.74262667 25.70851786 0.23046875 29.8203125 C-1.08953125 29.8203125 -2.40953125 29.8203125 -3.76953125 29.8203125 C-4.42341797 25.07963377 -4.76953125 20.60915137 -4.76953125 15.8203125 C-5.09953125 14.8303125 -5.42953125 13.8403125 -5.76953125 12.8203125 C-6.69765625 12.8821875 -7.62578125 12.9440625 -8.58203125 13.0078125 C-11.76953125 12.8203125 -11.76953125 12.8203125 -13.64453125 11.6953125 C-15.3242117 8.89584509 -15.22695402 7.02227186 -14.76953125 3.8203125 C-10.75388562 -1.68516726 -6.23883862 -0.60772107 0 0 Z " fill="#85B43B" transform="translate(466.76953125,666.1796875)"/>
<path d="M0 0 C3.53391969 1.48171072 5.59930326 3.45548562 8.125 6.3125 C8.80820312 7.07175781 9.49140625 7.83101563 10.1953125 8.61328125 C13.70072581 13.2492283 14.57686536 17.23134642 14 23 C12.86135464 26.10404625 11.49658535 29.0535976 10 32 C9.34 32 8.68 32 8 32 C7.516941 30.60550891 7.03874483 29.20933293 6.5625 27.8125 C6.29566406 27.03519531 6.02882813 26.25789063 5.75390625 25.45703125 C5.00486577 23.01585787 4.50078358 20.50391792 4 18 C4.33 22.62 4.66 27.24 5 32 C0.02802615 30.01121046 -1.13258735 29.19871138 -4 25 C-7.05073643 15.8477907 -3.65109006 8.43662596 0 0 Z " fill="#8FBC45" transform="translate(257,346)"/>
<path d="M0 0 C4.79404653 0.52298689 7.88482303 2.12203446 11.4375 5.375 C15.87874622 11.55555201 17.26181516 17.86846605 17.4375 25.375 C10.09375872 25.76841471 4.83490814 24.5644408 -1.375 20.5625 C-5.16888023 16.76861977 -6.73117488 13.32750789 -6.75 8 C-6.688125 6.80375 -6.62625 5.6075 -6.5625 4.375 C-1.55331256 5.84829042 0.95557722 8.65015238 4.4375 12.375 C4.02757812 11.91609375 3.61765625 11.4571875 3.1953125 10.984375 C2.65648437 10.37078125 2.11765625 9.7571875 1.5625 9.125 C1.02882813 8.52171875 0.49515625 7.9184375 -0.0546875 7.296875 C-1.5422487 5.40081254 -2.56572436 3.56209995 -3.5625 1.375 C-2.5625 0.375 -2.5625 0.375 0 0 Z " fill="#8EB943" transform="translate(571.5625,237.625)"/>
<path d="M0 0 C5.38866753 -0.59628698 9.73329051 -0.7408041 14.3125 2.4375 C18.34130549 5.8779201 21.12693571 10.04718577 23 15 C23 16.32 23 17.64 23 19 C16.38688225 20.84622509 10.24859651 21.03695227 4.0625 17.8125 C0.65945436 15.67808092 -1.55161233 13.86236712 -3 10 C-3.1875 7.1875 -3.1875 7.1875 -3 5 C-0.23723823 5.52268466 2.3260876 6.10869587 5 7 C3.02 5.68 1.04 4.36 -1 3 C-0.67 2.01 -0.34 1.02 0 0 Z " fill="#91BB46" transform="translate(468,233)"/>
<path d="M0 0 C1.265625 1.84765625 1.265625 1.84765625 2.25 4.0625 C2.58515625 4.79597656 2.9203125 5.52945313 3.265625 6.28515625 C3.50796875 6.85105469 3.7503125 7.41695312 4 8 C3.01 8 2.02 8 1 8 C1.78026362 14.01917426 1.78026362 14.01917426 4.9375 18.9375 C5.9584375 19.4634375 5.9584375 19.4634375 7 20 C10 22 10 22 10.51171875 24.1640625 C10.56972656 24.97617187 10.62773437 25.78828125 10.6875 26.625 C10.75324219 27.44226563 10.81898438 28.25953125 10.88671875 29.1015625 C10.92410156 29.72804688 10.96148437 30.35453125 11 31 C3.74327171 30.54645448 -1.30608095 27.76481166 -6.375 22.5625 C-10.03812115 16.78603973 -10.26560525 11.64013126 -10 5 C-10.99 5 -11.98 5 -13 5 C-13 4.34 -13 3.68 -13 3 C-11.5903653 2.29819469 -10.17192359 1.61406042 -8.75 0.9375 C-7.96109375 0.55464844 -7.1721875 0.17179688 -6.359375 -0.22265625 C-3.66782129 -1.10944299 -2.55453561 -1.21232199 0 0 Z " fill="#8FBC3F" transform="translate(452,574)"/>
<path d="M0 0 C-0.53093685 4.00298439 -1.57277622 6.17853328 -4.25 9.1875 C-4.83265625 9.86167969 -5.4153125 10.53585938 -6.015625 11.23046875 C-10.62493326 15.34073773 -15.54167912 15.41571187 -21.4609375 15.3359375 C-24 15 -24 15 -26.6875 13 C-27.120625 12.34 -27.55375 11.68 -28 11 C-25.03 9.68 -22.06 8.36 -19 7 C-22.3 7.66 -25.6 8.32 -29 9 C-28.20799319 5.21596748 -27.0985231 2.63972045 -24.1875 0.125 C-17.27929342 -4.37909276 -7.36192053 -2.73931927 0 0 Z " fill="#93BE44" transform="translate(648,223)"/>
<path d="M0 0 C5.41541912 0.33846369 9.15251933 3.4416828 13 7 C16.65357259 11.26419754 17.42267526 15.42283296 17.23828125 20.88671875 C17.000347 22.9969225 16.56757757 24.95579787 16 27 C12.30209954 25.76736651 12.0645154 24.79947549 10.3125 21.4375 C9.87550781 20.61121094 9.43851563 19.78492188 8.98828125 18.93359375 C8.66214844 18.29550781 8.33601562 17.65742188 8 17 C8.28875 17.62648438 8.5775 18.25296875 8.875 18.8984375 C9.24625 19.71570313 9.6175 20.53296875 10 21.375 C10.37125 22.18710937 10.7425 22.99921875 11.125 23.8359375 C12 26 12 26 12 28 C7.07395127 27.56534864 4.48108776 25.40373025 1 22 C-1.01752413 18.08004539 -1.24325862 14.81201714 -1.1875 10.4375 C-1.18105469 9.32246094 -1.17460937 8.20742188 -1.16796875 7.05859375 C-1.02879876 4.52440541 -0.73749391 2.41308007 0 0 Z " fill="#8FBB44" transform="translate(221,422)"/>
<path d="M0 0 C0.66 0 1.32 0 2 0 C2.66 2.97 3.32 5.94 4 9 C4 6.36 4 3.72 4 1 C7.90604537 2.26682552 9.90166803 3.43283565 12 7 C12.6875 8.8125 12.6875 8.8125 13 11 C13.144375 11.99 13.28875 12.98 13.4375 14 C13.42477551 19.81509092 9.72869708 25.05423654 7 30 C3.36671383 28.54983806 1.88258423 26.77807683 -0.1875 23.5 C-0.69667969 22.7059375 -1.20585938 21.911875 -1.73046875 21.09375 C-4.69215649 16.20924345 -4.5940024 11.63114273 -4 6 C-2.95718827 3.3954418 -1.93405439 2.10470625 0 0 Z " fill="#8EBA44" transform="translate(690,313)"/>
<path d="M0 0 C0.99 0.33 1.98 0.66 3 1 C2.67 3.31 2.34 5.62 2 8 C2.99 5.69 3.98 3.38 5 1 C8.06500356 3.93174254 8.93498045 5.2457732 9.3125 9.625 C9.1952141 15.5212823 7.0875054 19.825859 3.0234375 24.05859375 C-2.44491952 29 -2.44491952 29 -5 29 C-8.58904012 22.56963644 -8.85074368 16.26404223 -8 9 C-6.53955061 5.03806293 -3.69993029 2.02899403 0 0 Z " fill="#8FBA45" transform="translate(729,359)"/>
<path d="M0 0 C5.50424828 1.93538969 9.72558127 4.07257889 13 9 C7.53755951 13.40877176 3.12282962 16.4846463 -4 17.375 C-8.59313739 16.80085783 -11.34799603 14.32160318 -14.875 11.5 C-16 10 -16 10 -16 6 C-11.50654171 -0.44062355 -7.56202855 -0.94656825 0 0 Z " fill="#94BE48" transform="translate(365,290)"/>
<path d="M0 0 C5.94794657 2.59661111 9.91117303 6.35953335 13 12 C6.48263687 15.96153445 0.8306458 18.10767485 -7 17 C-11.37550534 14.72810299 -14.17454536 12.0208393 -17 8 C-17 7.67 -17 7.34 -17 7 C-14 7 -11 7 -8 7 C-10.31 6.34 -12.62 5.68 -15 5 C-12.04964218 -1.53293518 -6.56473903 -0.90936359 0 0 Z " fill="#94BF49" transform="translate(413,260)"/>
<path d="M0 0 C-0.37262681 7.26622289 -4.58407755 12.69644604 -9.6875 17.5625 C-14.45525169 19.63152432 -18.87840192 19.3280739 -24 19 C-24 18.01 -24 17.02 -24 16 C-21.5 13.8125 -21.5 13.8125 -19 12 C-19.78375 12.495 -20.5675 12.99 -21.375 13.5 C-24 15 -24 15 -26 15 C-26.52885012 11.4038192 -26.03725048 10.05887979 -24.0625 6.9375 C-17.42110722 -0.2418827 -9.25933115 -0.56402017 0 0 Z " fill="#93BD44" transform="translate(285,412)"/>
<path d="M0 0 C4.53022289 1.13255572 7.53450304 2.75122018 10.1328125 6.73828125 C11.2702 9.7047108 11.26478673 12.20324616 11.25 15.375 C11.25515625 16.47585938 11.2603125 17.57671875 11.265625 18.7109375 C10.99205949 22.09832226 10.20501669 24.83444028 9 28 C3.77566253 27.40293286 0.89686198 25.2970219 -2.42578125 21.2734375 C-5.51596236 16.90366027 -6.68263691 13.41732745 -6.3671875 8.0546875 C-5.85493433 5.18824957 -4.86452065 3.22308231 -3 1 C-2.34 1 -1.68 1 -1 1 C-0.01 3.97 0.98 6.94 2 10 C1.34 6.7 0.68 3.4 0 0 Z " fill="#91BC46" transform="translate(650,275)"/>
<path d="M0 0 C0.47694281 7.82981121 0.35540938 14.26761883 -4 21 C-7.0399667 24.36861175 -8.25088356 24.95087761 -12.8125 25.25 C-13.864375 25.1675 -14.91625 25.085 -16 25 C-14.80100302 21.9168649 -13.52299523 18.93720508 -12 16 C-12.33773438 16.5053125 -12.67546875 17.010625 -13.0234375 17.53125 C-13.46945312 18.1809375 -13.91546875 18.830625 -14.375 19.5 C-14.81585938 20.1496875 -15.25671875 20.799375 -15.7109375 21.46875 C-16.13632812 21.9740625 -16.56171875 22.479375 -17 23 C-17.66 23 -18.32 23 -19 23 C-19.93239541 18.43937029 -20.51560024 15.1432875 -18.5625 10.8125 C-13.70897717 5.48546274 -7.63328739 0 0 0 Z " fill="#94BF43" transform="translate(273,473)"/>
<path d="M0 0 C2.9375 1 2.9375 1 5 2 C3.5361389 6.39158329 1.02168662 6.87947433 -3 9 C2.625 6 2.625 6 6 6 C5.86297357 8.94606829 5.70124445 11.20159518 3.703125 13.4765625 C-1.050685 17.5008274 -4.42577667 18.13868068 -10.5 18.125 C-11.6446875 18.12757813 -12.789375 18.13015625 -13.96875 18.1328125 C-17 18 -17 18 -20 17 C-19.30333665 11.0783615 -16.34277899 6.97801176 -11.875 3.1875 C-7.58721129 -0.07494793 -5.40204776 -0.27468039 0 0 Z " fill="#91BB46" transform="translate(736,574)"/>
<path d="M0 0 C-0.66 3.63 -1.32 7.26 -2 11 C-0.68 7.7 0.64 4.4 2 1 C4.95799929 3.31093695 5.9203415 4.48221974 6.5 8.25 C5.38168765 16.63734263 1.31557236 21.09618334 -4.9765625 26.53125 C-7 28 -7 28 -9 28 C-11.36198723 22.05285359 -13.0922921 16.4323868 -12 10 C-9.47388177 5.04132347 -5.94524562 0 0 0 Z " fill="#91BD47" transform="translate(747,421)"/>
<path d="M0 0 C-1.65091778 4.29238623 -4.73754566 6.8793915 -8 10 C-7.18595703 9.36771484 -7.18595703 9.36771484 -6.35546875 8.72265625 C-5.64003906 8.17480469 -4.92460938 7.62695312 -4.1875 7.0625 C-3.12595703 6.24458984 -3.12595703 6.24458984 -2.04296875 5.41015625 C0 4 0 4 3 3 C3.50657287 8.31901517 2.32610043 10.86484812 -1 15 C-5.18060773 19.30356678 -10.25590793 20.7671217 -16 22 C-17.32 22 -18.64 22 -20 22 C-19.7283288 15.24897062 -18.98613009 10.5362918 -15 5 C-9.69828175 0.20320729 -6.91692304 -0.11156327 0 0 Z " fill="#90BC47" transform="translate(758,506)"/>
<path d="M0 0 C2.9654455 1.05941813 5.28494718 2.36072282 8 4 C7.00168787 8.57478957 5.18371197 11.53311522 1.203125 14.20703125 C-3.27443826 16.66274908 -6.81523721 17.68477999 -12 17 C-14.9375 15.6875 -14.9375 15.6875 -17 14 C-17 13.01 -17 12.02 -17 11 C-14.69 10.34 -12.38 9.68 -10 9 C-14.455 9.495 -14.455 9.495 -19 10 C-17.85883361 5.43533445 -16.42365848 4.08964301 -13 1 C-9.04880384 -0.97559808 -4.30452019 -0.44489672 0 0 Z " fill="#8FBD43" transform="translate(306,363)"/>
<path d="M0 0 C3.36530737 1.12176912 3.62117479 1.45488073 5.1875 4.4375 C7.44624383 9.27642428 7.73968359 13.74296304 7 19 C5.60927117 22.64238503 4.10358237 25.57110945 1 28 C0.34 28 -0.32 28 -1 28 C-1.33 24.37 -1.66 20.74 -2 17 C-2.66 20.63 -3.32 24.26 -4 28 C-9.83957219 22.31016043 -9.83957219 22.31016043 -10.375 17.9375 C-9.66393932 10.47136287 -5.50348164 4.87451231 0 0 Z " fill="#8EBA40" transform="translate(305,285)"/>
<path d="M0 0 C1.14888581 3.44665742 1.2039347 6.24351905 1.25 9.875 C1.27578125 11.08929687 1.3015625 12.30359375 1.328125 13.5546875 C0.85925331 18.47784022 -0.85841585 20.94623001 -4.4375 24.25 C-6.75727756 25.83423833 -8.25929337 26.59396939 -11 27 C-10.40075776 22.80530429 -9.42500059 18.99000166 -8 15 C-9.65 18.3 -11.3 21.6 -13 25 C-15.61645955 22.38354045 -15.93919298 20.44302254 -16.4375 16.8125 C-15.83551781 11.56665518 -13.67943141 8.69489121 -10 5 C-3.47826087 0 -3.47826087 0 0 0 Z " fill="#91BE43" transform="translate(278,529)"/>
<path d="M0 0 C15.8020619 -0.69064956 30.72765962 0.40913741 46.30639648 2.78997803 C60.22162586 4.90752898 73.90618171 5.90333718 88 6 C85.17443413 8.82556587 83.32109882 8.25836345 79.3671875 8.265625 C78.3704879 8.26971878 78.3704879 8.26971878 77.35365295 8.27389526 C75.19389965 8.27795161 73.03469732 8.26531764 70.875 8.25 C70.14314484 8.24756287 69.41128967 8.24512573 68.65725708 8.24261475 C58.28945775 8.20180843 48.2480106 7.72758894 38 6 C35.31496746 5.62656291 32.6261901 5.2834675 29.9375 4.9375 C26.49458136 4.47717607 23.05757058 4.00892877 19.625 3.4765625 C15.43809638 2.92612905 11.27738366 2.65781526 7.0625 2.4375 C6.28326172 2.39431641 5.50402344 2.35113281 4.70117188 2.30664062 C2.80092883 2.20171923 0.90048331 2.1004755 -1 2 C-0.67 1.34 -0.34 0.68 0 0 Z " fill="#96C549" transform="translate(464,224)"/>
<path d="M0 0 C-1.41505329 6.06451412 -3.16035276 10.01328507 -8.15625 13.85546875 C-10.64240913 15.39878364 -13.1927712 16.21658731 -16 17 C-16.66 17.66 -17.32 18.32 -18 19 C-19.03531726 18.09972412 -20.05294165 17.17906965 -21.0625 16.25 C-21.63097656 15.73953125 -22.19945312 15.2290625 -22.78515625 14.703125 C-24 13 -24 13 -23.8125 11 C-22.61497131 8.05223706 -20.82595763 5.5916818 -19 3 C-18.67 3.66 -18.34 4.32 -18 5 C-16.08191891 4.54762239 -14.16557967 4.08785537 -12.25 3.625 C-10.64898437 3.24214844 -10.64898437 3.24214844 -9.015625 2.8515625 C-5.93187876 1.98076369 -3.17018656 0 0 0 Z " fill="#91BD43" transform="translate(489,588)"/>
<path d="M0 0 C7.21835361 -0.07706116 14.4365984 -0.1290164 21.65527344 -0.16479492 C24.1029049 -0.17973518 26.5505103 -0.20009475 28.99804688 -0.22631836 C46.65719123 -0.41056884 63.95811352 -0.40438381 80.625 6.1875 C81.35460937 6.46013672 82.08421875 6.73277344 82.8359375 7.01367188 C84.56281105 7.66124946 86.28241108 8.32818358 88 9 C85 11 85 11 81.3125 10.375 C79.53827197 9.92998871 77.76800861 9.46911162 76 9 C74.01454622 8.48859524 72.02899057 7.97755378 70.04174805 7.47314453 C68.6719317 7.12445245 67.30350492 6.7702398 65.93676758 6.40966797 C56.52293145 3.98773514 47.18042409 3.7375538 37.5 3.4375 C35.5509375 3.37272461 35.5509375 3.37272461 33.5625 3.30664062 C30.37509155 3.2011749 27.18761302 3.09905552 24 3 C24 2.67 24 2.34 24 2 C16.08 1.67 8.16 1.34 0 1 C0 0.67 0 0.34 0 0 Z " fill="#A0C356" transform="translate(526,229)"/>
<path d="M0 0 C0.33 0 0.66 0 1 0 C0.66397853 7.29950973 -0.84471951 13.2182543 -3.8125 19.875 C-4.2048584 20.7719458 -4.5972168 21.6688916 -5.00146484 22.59301758 C-9.49773551 32.56024447 -15.08836484 41.81955321 -21 51 C-21.38526855 51.60602051 -21.77053711 52.21204102 -22.16748047 52.83642578 C-26.11767104 59.00756266 -26.11767104 59.00756266 -28 61 C-28.99 61 -29.98 61 -31 61 C-29.62531364 58.13436027 -28.08194048 55.4863044 -26.34765625 52.82421875 C-20.30114584 43.40129083 -14.71296872 33.91787232 -9.875 23.8125 C-9.20223022 22.41680786 -9.20223022 22.41680786 -8.51586914 20.99291992 C-5.77119808 15.12425869 -3.67844815 9.25657184 -2 3 C-1.34 3 -0.68 3 0 3 C0 2.01 0 1.02 0 0 Z " fill="#91BE4D" transform="translate(763,549)"/>
<path d="M0 0 C3.375 -0.125 3.375 -0.125 7 0 C9 2 9 2 9 5 C10.65 5.33 12.3 5.66 14 6 C12.44191344 16.55808656 12.44191344 16.55808656 8 21 C5.16973395 17.63063566 3.68908184 14.03910875 2 10 C1.34 9.01 0.68 8.02 0 7 C-0.07905064 4.66800612 -0.08798769 2.33167378 0 0 Z " fill="#86B245" transform="translate(431,677)"/>
<path d="M0 0 C0 0.33 0 0.66 0 1 C5.28 1.33 10.56 1.66 16 2 C16 2.33 16 2.66 16 3 C15.30551758 3.01458252 14.61103516 3.02916504 13.89550781 3.04418945 C10.67984235 3.11969836 7.46510173 3.21601054 4.25 3.3125 C3.15816406 3.33505859 2.06632812 3.35761719 0.94140625 3.38085938 C-9.1020588 3.7077177 -18.16314536 5.8592735 -27.625 9.1875 C-32.79775281 11 -32.79775281 11 -35 11 C-35.33 10.01 -35.66 9.02 -36 8 C-12.61160714 -0.75334821 -12.61160714 -0.75334821 0 0 Z " fill="#97C24D" transform="translate(464,224)"/>
<path d="M0 0 C5.56942543 4.23151876 5.49165841 14.39803673 6.41015625 20.90625 C7.2311014 28.58382151 7.09365252 36.28927564 7 44 C4.30315557 41.30315557 4.4485931 39.39993188 3.96484375 35.63671875 C3.79533203 34.35732422 3.62582031 33.07792969 3.45117188 31.75976562 C3.27959828 30.4023879 3.10837771 29.04496551 2.9375 27.6875 C2.59525612 25.04519928 2.24865356 22.40349206 1.90234375 19.76171875 C1.75273193 18.58569092 1.60312012 17.40966309 1.44897461 16.19799805 C1.06104581 13.43482278 0.55428547 10.73291023 0 8 C-0.11678799 5.32321927 -0.0454506 2.68158543 0 0 Z " fill="#8ABB47" transform="translate(249,517)"/>
<path d="M0 0 C2.16659374 -0.02738672 4.33329175 -0.04656832 6.5 -0.0625 C8.30984375 -0.07990234 8.30984375 -0.07990234 10.15625 -0.09765625 C13.3816726 -0.01570954 16.44437889 0.30711735 19.63476562 0.74389648 C24.9003582 1.3140458 30.20943572 1.38517889 35.5 1.5625 C37.30597656 1.62727539 37.30597656 1.62727539 39.1484375 1.69335938 C42.09886193 1.79873168 45.04936071 1.90085903 48 2 C46 4 46 4 42.99414062 4.24291992 C41.72763672 4.23881104 40.46113281 4.23470215 39.15625 4.23046875 C38.47252319 4.23001053 37.78879639 4.22955231 37.08435059 4.2290802 C35.631737 4.22605513 34.17912673 4.21816119 32.7265625 4.20581055 C30.53633699 4.18779882 28.34654112 4.18529933 26.15625 4.18554688 C4.92799061 4.13737795 4.92799061 4.13737795 0 0 Z " fill="#90BA3E" transform="translate(504,228)"/>
<path d="M0 0 C0.33 0 0.66 0 1 0 C1.81848221 3.66535727 2.62868872 7.33249763 3.4375 11 C3.66759766 12.02996094 3.89769531 13.05992187 4.13476562 14.12109375 C5.3699525 19.7420891 6.40137527 25.275221 7 31 C6.01 31.66 5.02 32.32 4 33 C2.99645963 28.70915318 1.99776629 24.41719284 1 20.125 C0.71382812 18.90167969 0.42765625 17.67835938 0.1328125 16.41796875 C-0.13789063 15.25136719 -0.40859375 14.08476562 -0.6875 12.8828125 C-0.93886719 11.80402832 -1.19023437 10.72524414 -1.44921875 9.61376953 C-2 7 -2 7 -2 5 C-1.34 5 -0.68 5 0 5 C0 3.35 0 1.7 0 0 Z " fill="#97C359" transform="translate(244,487)"/>
<path d="M0 0 C6.03415103 0.46905785 10.30736029 2.39297794 15.5625 5.3125 C16.29146484 5.70373047 17.02042969 6.09496094 17.77148438 6.49804688 C22.0054592 8.79605481 26.03598733 11.26339094 30 14 C28.23706055 15.11572266 28.23706055 15.11572266 26 16 C24.12817383 15.37255859 24.12817383 15.37255859 22.20703125 14.1484375 C21.49353516 13.70886719 20.78003906 13.26929688 20.04492188 12.81640625 C19.30822266 12.34074219 18.57152344 11.86507812 17.8125 11.375 C12.03693322 7.73218969 6.31785642 4.61268234 0 2 C0 1.34 0 0.68 0 0 Z " fill="#9AC04C" transform="translate(611,239)"/>
<path d="M0 0 C0.33 0.66 0.66 1.32 1 2 C-0.1626449 4.37636205 -1.37855844 6.64360952 -2.6875 8.9375 C-6.7397581 16.26408812 -9.70545228 23.58330777 -12.0625 31.625 C-12.371875 32.40875 -12.68125 33.1925 -13 34 C-14.485 34.495 -14.485 34.495 -16 35 C-14.8494553 28.71427653 -13.04742049 23.23695947 -10.25 17.5 C-9.89873047 16.76531494 -9.54746094 16.03062988 -9.18554688 15.27368164 C-6.55391566 9.87609139 -3.61598408 4.8076152 0 0 Z " fill="#E6EBD6" transform="translate(511,410)"/>
<path d="M0 0 C12.87 0 25.74 0 39 0 C39 0.33 39 0.66 39 1 C42.3 1.33 45.6 1.66 49 2 C49 2.33 49 2.66 49 3 C40.75 3 32.5 3 24 3 C24 2.67 24 2.34 24 2 C16.08 1.67 8.16 1.34 0 1 C0 0.67 0 0.34 0 0 Z " fill="#A7C667" transform="translate(526,229)"/>
<path d="M0 0 C1.175625 0.391875 2.35125 0.78375 3.5625 1.1875 C4.37847656 1.45820313 5.19445312 1.72890625 6.03515625 2.0078125 C8.23353575 2.74350208 10.42831398 3.48997179 12.62109375 4.2421875 C19.35423066 6.54126573 26.00009664 8.64914146 33 10 C33 10.33 33 10.66 33 11 C27.13825666 11.29112014 22.19660843 10.24929813 16.5625 8.6875 C15.75490234 8.47416016 14.94730469 8.26082031 14.11523438 8.04101562 C8.94560876 6.64550831 3.98582678 4.95197122 -1 3 C-0.67 2.01 -0.34 1.02 0 0 Z " fill="#DEE7D3" transform="translate(550,446)"/>
<path d="M0 0 C19.69552992 -0.24585266 19.69552992 -0.24585266 25 4 C23.06257659 4.02703381 21.12504521 4.04641125 19.1875 4.0625 C18.10855469 4.07410156 17.02960937 4.08570313 15.91796875 4.09765625 C13 4 13 4 10 3 C8.10787263 2.77820215 6.21115528 2.59385985 4.3125 2.4375 C3.31863281 2.35371094 2.32476563 2.26992187 1.30078125 2.18359375 C0.16189453 2.09271484 0.16189453 2.09271484 -1 2 C-0.67 1.34 -0.34 0.68 0 0 Z " fill="#96BC49" transform="translate(565,229)"/>
<path d="M0 0 C1.49080078 0.02707031 1.49080078 0.02707031 3.01171875 0.0546875 C3.77097656 0.07789063 4.53023438 0.10109375 5.3125 0.125 C5.3125 1.115 5.3125 2.105 5.3125 3.125 C0.66400485 5.5242233 -3.59836074 5.32457409 -8.6875 5.125 C-8.6875 4.135 -8.6875 3.145 -8.6875 2.125 C-5.26655758 -0.15562828 -4.00562778 -0.09425007 0 0 Z " fill="#82AA4D" transform="translate(462.6875,702.875)"/>
<path d="M0 0 C0.33 0 0.66 0 1 0 C1.6331684 9.01134307 2.1723784 17.95971078 2 27 C1.34 27 0.68 27 0 27 C-1.32607729 21.97985026 -1.1470587 16.96320636 -1.125 11.8125 C-1.12886719 10.89791016 -1.13273438 9.98332031 -1.13671875 9.04101562 C-1.13478516 7.73100586 -1.13478516 7.73100586 -1.1328125 6.39453125 C-1.13168457 5.59893799 -1.13055664 4.80334473 -1.12939453 3.98364258 C-1 2 -1 2 0 0 Z " fill="#86B73F" transform="translate(242,465)"/>
<path d="M0 0 C2.55221604 1.88642055 2.99033955 2.94915551 3.59375 6.125 C4.01018925 10.09718979 4.09783297 13.94487386 4.0625 17.9375 C4.05573242 18.96327148 4.05573242 18.96327148 4.04882812 20.00976562 C4.0371956 21.67321604 4.01926694 23.3366205 4 25 C1.17253334 22.17253334 1.29392489 19.12059597 0.875 15.3125 C0.78863281 14.61705078 0.70226562 13.92160156 0.61328125 13.20507812 C0.09197882 8.77400744 -0.08184334 4.46046181 0 0 Z " fill="#83BC41" transform="translate(252,536)"/>
<path d="M0 0 C2 2 2 2 2.265625 4.75 C2.26046875 5.8225 2.2553125 6.895 2.25 8 C2.25515625 9.0725 2.2603125 10.145 2.265625 11.25 C2 14 2 14 0 16 C-1 15 -1 15 -1.09765625 13.15234375 C-1.06510417 11.1015625 -1.03255208 9.05078125 -1 7 C-1.66 7 -2.32 7 -3 7 C-3.1875 4.625 -3.1875 4.625 -3 2 C-2.01 1.34 -1.02 0.68 0 0 Z " fill="#80B338" transform="translate(486,669)"/>
<path d="M0 0 C0.66 0.33 1.32 0.66 2 1 C1.38253906 1.40089844 0.76507812 1.80179687 0.12890625 2.21484375 C-5.6254017 6.07732443 -10.45371918 10.2138889 -15.1875 15.27734375 C-17 17 -17 17 -19 17 C-14.96433402 8.4823271 -8.7379335 3.54086194 0 0 Z " fill="#EBF1DC" transform="translate(567,327)"/>
<path d="M0 0 C2.83363811 0.62364257 5.66690959 1.24887814 8.5 1.875 C9.68722656 2.13603516 9.68722656 2.13603516 10.8984375 2.40234375 C15.95470933 3.52135473 20.98142181 4.72233445 26 6 C26 6.33 26 6.66 26 7 C16.64224564 6.59314111 8.07017674 5.39561147 -1 3 C-0.67 2.01 -0.34 1.02 0 0 Z " fill="#DAE2CF" transform="translate(530,480)"/>
<path d="M0 0 C0.66 0.33 1.32 0.66 2 1 C-5.42798375 5.7967544 -12.58103318 10.11132515 -21 13 C-20.73193359 11.11572266 -20.73193359 11.11572266 -20 9 C-18.37353516 7.93505859 -18.37353516 7.93505859 -16.2890625 7.1484375 C-15.53882813 6.85453125 -14.78859375 6.560625 -14.015625 6.2578125 C-13.22671875 5.96648437 -12.4378125 5.67515625 -11.625 5.375 C-10.0744652 4.78139592 -8.52494264 4.1851394 -6.9765625 3.5859375 C-6.28643066 3.3286084 -5.59629883 3.0712793 -4.88525391 2.80615234 C-2.73180705 1.95329092 -2.73180705 1.95329092 0 0 Z " fill="#EDF0E2" transform="translate(622,404)"/>
<path d="M0 0 C0.02707139 2.24993359 0.04642829 4.49996095 0.0625 6.75 C0.07410156 8.00296875 0.08570313 9.2559375 0.09765625 10.546875 C0.02021027 13.28536501 -0.17219185 15.41880293 -1 18 C-1.66 18 -2.32 18 -3 18 C-3 12.39 -3 6.78 -3 1 C-1 0 -1 0 0 0 Z " fill="#8EC04C" transform="translate(770,509)"/>
<path d="M0 0 C2.97 0.99 5.94 1.98 9 3 C8.67 4.32 8.34 5.64 8 7 C7.01 7.495 7.01 7.495 6 8 C5.67 7.34 5.34 6.68 5 6 C1.98509443 4.99503148 -0.04181692 4.89664697 -3.1875 4.9375 C-4.08855469 4.94652344 -4.98960937 4.95554687 -5.91796875 4.96484375 C-6.94857422 4.98224609 -6.94857422 4.98224609 -8 5 C-8.33 4.34 -8.66 3.68 -9 3 C-6.03 3 -3.06 3 0 3 C0 2.01 0 1.02 0 0 Z " fill="#A3C758" transform="translate(463,646)"/>
<path d="M0 0 C0.33 0.66 0.66 1.32 1 2 C0.109375 4.1796875 0.109375 4.1796875 -1.25 6.875 C-4.04838851 12.76019032 -5.63620448 18.64670866 -7 25 C-8.61669083 22.52741403 -9.01078437 21.19277064 -8.84375 18.20703125 C-7.85117962 14.43434474 -6.29966967 11.12421859 -4.5 7.6875 C-4.17902344 7.05521484 -3.85804688 6.42292969 -3.52734375 5.77148438 C-1.16976305 1.16976305 -1.16976305 1.16976305 0 0 Z " fill="#E6EBD0" transform="translate(545,406)"/>
<path d="M0 0 C3.68069887 1.53643852 5.98775204 3.78150945 8.75 6.625 C9.54921875 7.44226563 10.3484375 8.25953125 11.171875 9.1015625 C12.07679688 10.04128906 12.07679688 10.04128906 13 11 C12.01 11.66 11.02 12.32 10 13 C6.37 9.37 2.74 5.74 -1 2 C-0.67 1.34 -0.34 0.68 0 0 Z " fill="#8CBA41" transform="translate(658,269)"/>
<path d="M0 0 C0.33 0 0.66 0 1 0 C0.61020794 6.55925943 -0.42113193 11.94526627 -3 18 C-3.99 17.67 -4.98 17.34 -6 17 C-5.79503906 16.32453125 -5.59007812 15.6490625 -5.37890625 14.953125 C-5.10949219 14.06109375 -4.84007812 13.1690625 -4.5625 12.25 C-4.16224609 10.92742188 -4.16224609 10.92742188 -3.75390625 9.578125 C-3.11531506 7.39434165 -2.53224167 5.21164502 -2 3 C-1.34 3 -0.68 3 0 3 C0 2.01 0 1.02 0 0 Z " fill="#93C04D" transform="translate(763,549)"/>
<path d="M0 0 C3.68624832 2.45749888 4.39101018 4.49005728 6.1875 8.5 C6.71730469 9.6653125 7.24710937 10.830625 7.79296875 12.03125 C9 15 9 15 9 17 C6 16 6 16 4.39453125 13.41796875 C3.87246094 12.35191406 3.35039062 11.28585937 2.8125 10.1875 C2.28269531 9.12917969 1.75289063 8.07085938 1.20703125 6.98046875 C0 4 0 4 0 0 Z " fill="#93C455" transform="translate(262,586)"/>
<path d="M0 0 C4.85714286 2.42857143 4.85714286 2.42857143 7 5 C7 5.66 7 6.32 7 7 C8.98 7 10.96 7 13 7 C13 7.33 13 7.66 13 8 C10.66705225 8.04241723 8.33297433 8.04092937 6 8 C5.67 7.67 5.34 7.34 5 7 C4.01 8.485 4.01 8.485 3 10 C3 8.68 3 7.36 3 6 C2.34 6 1.68 6 1 6 C1 8.64 1 11.28 1 14 C0.67 14 0.34 14 0 14 C0 9.38 0 4.76 0 0 Z " fill="#99BE5F" transform="translate(423,669)"/>
<path d="M0 0 C0.33 0 0.66 0 1 0 C1.03738281 0.65226562 1.07476563 1.30453125 1.11328125 1.9765625 C1.52042675 7.38920264 2.34755869 11.17737944 5 16 C4.67 16.66 4.34 17.32 4 18 C3.34 17.67 2.68 17.34 2 17 C1.67 17.66 1.34 18.32 1 19 C0.01 15.7 -0.98 12.4 -2 9 C-1.34 9 -0.68 9 0 9 C0 6.03 0 3.06 0 0 Z " fill="#94C346" transform="translate(524,349)"/>
<path d="M0 0 C0.99 1.32 1.98 2.64 3 4 C1.35 7.3 -0.3 10.6 -2 14 C-2.66 13.67 -3.32 13.34 -4 13 C-3.27991594 8.39146203 -1.68704061 4.32762591 0 0 Z " fill="#84B848" transform="translate(484,682)"/>
<path d="M0 0 C0.33 0 0.66 0 1 0 C2.33333333 5.33333333 3.66666667 10.66666667 5 16 C4.01 16 3.02 16 2 16 C1.27082849 14.27951682 0.56740783 12.54810505 -0.125 10.8125 C-0.51945312 9.84957031 -0.91390625 8.88664063 -1.3203125 7.89453125 C-2.12038901 4.48730885 -1.59504102 3.05065538 0 0 Z " fill="#9BC65F" transform="translate(259,571)"/>
<path d="M0 0 C5.34228516 1.52636719 10.68457031 3.05273438 16.02685547 4.57910156 C16.98615967 4.85318848 16.98615967 4.85318848 17.96484375 5.1328125 C18.96644531 5.41898437 19.96804688 5.70515625 21 6 C21 6.33 21 6.66 21 7 C13.172478 6.73510924 6.92271421 5.75854433 0 2 C0 1.34 0 0.68 0 0 Z " fill="#D7E1C6" transform="translate(585,423)"/>
<path d="M0 0 C0.90105469 0.00902344 1.80210937 0.01804688 2.73046875 0.02734375 C3.41753906 0.03894531 4.10460937 0.05054688 4.8125 0.0625 C4.8125 0.3925 4.8125 0.7225 4.8125 1.0625 C10.0925 1.3925 15.3725 1.7225 20.8125 2.0625 C20.8125 2.3925 20.8125 2.7225 20.8125 3.0625 C17.2083502 3.09150455 13.60423038 3.10930018 10 3.125 C8.46375977 3.13756836 8.46375977 3.13756836 6.89648438 3.15039062 C5.42211914 3.15522461 5.42211914 3.15522461 3.91796875 3.16015625 C3.01199951 3.16539307 2.10603027 3.17062988 1.17260742 3.17602539 C-1.1875 3.0625 -1.1875 3.0625 -4.1875 2.0625 C-5.51856622 1.72022583 -6.85150079 1.38498257 -8.1875 1.0625 C-5.17259443 0.05753148 -3.14568308 -0.04085303 0 0 Z " fill="#ADCE74" transform="translate(459.1875,223.9375)"/>
<path d="M0 0 C4.40035907 1.3038101 7.96040185 3.01273553 11.8125 5.5 C12.76769531 6.1084375 13.72289062 6.716875 14.70703125 7.34375 C17 9 17 9 18 11 C17.34 11.66 16.68 12.32 16 13 C15.5153125 12.55269531 15.030625 12.10539062 14.53125 11.64453125 C10.39662052 7.91541351 6.28619072 4.74313384 1.46875 1.9453125 C0.74171875 1.47738281 0.74171875 1.47738281 0 1 C0 0.67 0 0.34 0 0 Z " fill="#E2EBCD" transform="translate(492,333)"/>
<path d="M0 0 C0.33 1.32 0.66 2.64 1 4 C1.66 4 2.32 4 3 4 C3 10.93 3 17.86 3 25 C2.67 25 2.34 25 2 25 C1.67 20.38 1.34 15.76 1 11 C0.67 11 0.34 11 0 11 C0 7.37 0 3.74 0 0 Z " fill="#A4C76D" transform="translate(241,456)"/>
<path d="M0 0 C0.66 0.33 1.32 0.66 2 1 C1.649375 1.78375 1.29875 2.5675 0.9375 3.375 C0.628125 4.24125 0.31875 5.1075 0 6 C0.33 6.66 0.66 7.32 1 8 C-1.31 8.33 -3.62 8.66 -6 9 C-5.52797514 4.75177626 -3.03344482 2.80010291 0 0 Z " fill="#97C252" transform="translate(293,364)"/>
<path d="M0 0 C0.99 0.33 1.98 0.66 3 1 C2.01 1.33 1.02 1.66 0 2 C0 2.99 0 3.98 0 5 C-6.4 5.36923077 -6.4 5.36923077 -9.4375 3.5 C-9.953125 3.005 -10.46875 2.51 -11 2 C-7.846632 1.29925156 -5.27275026 1 -2 1 C-1.34 0.67 -0.68 0.34 0 0 Z " fill="#E2EDCB" transform="translate(470,662)"/>
<path d="M0 0 C0.66 0.33 1.32 0.66 2 1 C1.01 5.29 0.02 9.58 -1 14 C-1.33 14 -1.66 14 -2 14 C-2.39222105 12.58800422 -2.76311059 11.17007236 -3.125 9.75 C-3.33382812 8.96109375 -3.54265625 8.1721875 -3.7578125 7.359375 C-4.04691114 4.54299468 -3.55775944 3.33148102 -2 1 C-1.34 0.67 -0.68 0.34 0 0 Z " fill="#9BC652" transform="translate(535,357)"/>
<path d="M0 0 C0.33 0 0.66 0 1 0 C1.33 4.95 1.66 9.9 2 15 C0.68 15 -0.64 15 -2 15 C-2.22577402 9.5814234 -1.46670113 5.22512279 0 0 Z " fill="#CFE0B2" transform="translate(303,299)"/>
<path d="M0 0 C-3.64859761 3.04049801 -7.7444533 4.96518762 -12 7 C-12 5.68 -12 4.36 -12 3 C-4.71428571 -1.71428571 -4.71428571 -1.71428571 0 0 Z " fill="#9EC253" transform="translate(372,274)"/>
<path d="M0 0 C3 1 3 1 4 3 C5.32 3 6.64 3 8 3 C8 4.32 8 5.64 8 7 C6.68 7.33 5.36 7.66 4 8 C0 2.25 0 2.25 0 0 Z " fill="#A1C368" transform="translate(470,667)"/>
<path d="M0 0 C0.66 0 1.32 0 2 0 C2 0.99 2 1.98 2 3 C2.66 3 3.32 3 4 3 C3.95875 3.78375 3.9175 4.5675 3.875 5.375 C3.71271266 8.16116119 3.71271266 8.16116119 6 10 C4.02 10 2.04 10 0 10 C0 6 0 6 1 4 C0.60061233 1.90178785 0.60061233 1.90178785 0 0 Z " fill="#ABCE70" transform="translate(456,656)"/>
<path d="M0 0 C1.22010695 3.66032085 0.66318212 5.40960217 -0.25 9.125 C-0.50265625 10.20007813 -0.7553125 11.27515625 -1.015625 12.3828125 C-1.34046875 13.24648438 -1.6653125 14.11015625 -2 15 C-2.99 15.33 -3.98 15.66 -5 16 C-3.90301833 10.30860098 -2.45946923 5.25432063 0 0 Z " fill="#DCE4C5" transform="translate(372,244)"/>
<path d="M0 0 C4.66666667 4 9.33333333 8 14 12 C13.01 13.485 13.01 13.485 12 15 C11.55269531 14.48050781 11.10539063 13.96101562 10.64453125 13.42578125 C6.49728023 8.64019924 6.49728023 8.64019924 2.0625 4.125 C0 2 0 2 0 0 Z " fill="#DCE6C7" transform="translate(229,530)"/>
<path d="M0 0 C1.67110042 2.96178773 2.32682752 5.37071192 2.625 8.75 C2.69976563 9.54921875 2.77453125 10.3484375 2.8515625 11.171875 C2.90054688 11.77515625 2.94953125 12.3784375 3 13 C2.01 13.66 1.02 14.32 0 15 C-1.33257403 4.44191344 -1.33257403 4.44191344 0 0 Z " fill="#9AC358" transform="translate(744,367)"/>
<path d="M0 0 C1.345375 2.69075 0.71529269 4.03193253 0.0625 6.9375 C-0.5657739 9.76265217 -1 12.09412085 -1 15 C-1.99 15 -2.98 15 -4 15 C-2.9318153 9.88634986 -1.76892524 4.92772031 0 0 Z " fill="#A4CB50" transform="translate(588,404)"/>
<path d="M0 0 C0.33 0.99 0.66 1.98 1 3 C0.07421875 4.82421875 0.07421875 4.82421875 -1.3125 6.6875 C-1.76238281 7.31011719 -2.21226562 7.93273437 -2.67578125 8.57421875 C-3.11277344 9.04472656 -3.54976562 9.51523437 -4 10 C-4.66 10 -5.32 10 -6 10 C-4.79157144 5.56909529 -3.48331435 3.01887244 0 0 Z " fill="#86B941" transform="translate(749,584)"/>
<path d="M0 0 C1.39195915 4.17587745 -0.17676781 6.13474776 -2 10 C-2.66 10 -3.32 10 -4 10 C-3.38461538 3.47692308 -3.38461538 3.47692308 -1.4375 1.0625 C-0.7259375 0.5365625 -0.7259375 0.5365625 0 0 Z " fill="#8CB943" transform="translate(287,349)"/>
<path d="M0 0 C-1 3 -1 3 -3.875 4.75 C-7 6 -7 6 -10 5 C-6.99385784 1.69324363 -4.54252119 0 0 0 Z " fill="#91BE3B" transform="translate(429,233)"/>
<path d="M0 0 C1.4540625 0.0309375 1.4540625 0.0309375 2.9375 0.0625 C2.625 1.9375 2.625 1.9375 1.9375 4.0625 C0.9475 4.7225 -0.0425 5.3825 -1.0625 6.0625 C-2.0525 4.4125 -3.0425 2.7625 -4.0625 1.0625 C-3.0625 0.0625 -3.0625 0.0625 0 0 Z " fill="#99C258" transform="translate(572.0625,237.9375)"/>
<path d="M0 0 C0.66 0.66 1.32 1.32 2 2 C1.875 4 1.875 4 1 6 C-1.0625 7.25 -1.0625 7.25 -3 8 C-3.75 6.25 -3.75 6.25 -4 4 C-2.0625 1.75 -2.0625 1.75 0 0 Z " fill="#96BD63" transform="translate(479,693)"/>
<path d="M0 0 C0.66 0.33 1.32 0.66 2 1 C0.88121617 2.17262904 -0.24523051 3.33795138 -1.375 4.5 C-2.00148438 5.1496875 -2.62796875 5.799375 -3.2734375 6.46875 C-5 8 -5 8 -7 8 C-7 6.68 -7 5.36 -7 4 C-5.35 3.67 -3.7 3.34 -2 3 C-2 2.34 -2 1.68 -2 1 C-1.34 0.67 -0.68 0.34 0 0 Z " fill="#81A95B" transform="translate(451,487)"/>
<path d="M0 0 C0.33 0.66 0.66 1.32 1 2 C1.66 2 2.32 2 3 2 C2.67 3.98 2.34 5.96 2 8 C1.01 8.33 0.02 8.66 -1 9 C-0.67 6.03 -0.34 3.06 0 0 Z " fill="#97C154" transform="translate(246,433)"/>
<path d="M0 0 C0.99 0 1.98 0 3 0 C5.10770759 2.88834003 6 4.38462395 6 8 C5.01 8 4.02 8 3 8 C0 2.25 0 2.25 0 0 Z " fill="#91BD42" transform="translate(730,336)"/>
<path d="M0 0 C-0.33 0.99 -0.66 1.98 -1 3 C-4.5625 4.1875 -4.5625 4.1875 -8 5 C-8.33 4.01 -8.66 3.02 -9 2 C-5.62902617 0.50178941 -3.79557881 0 0 0 Z " fill="#9AC14F" transform="translate(437,230)"/>
<path d="M0 0 C3.465 1.98 3.465 1.98 7 4 C6.01 4.99 5.02 5.98 4 7 C2.02 5.68 0.04 4.36 -2 3 C-1.34 2.67 -0.68 2.34 0 2 C0 1.34 0 0.68 0 0 Z " fill="#9BC34C" transform="translate(694,300)"/>
<path d="M0 0 C0.66 0 1.32 0 2 0 C2.33 2.97 2.66 5.94 3 9 C2.01 9 1.02 9 0 9 C0 6.03 0 3.06 0 0 Z " fill="#81AC41" transform="translate(424,675)"/>
<path d="M0 0 C0.99 0 1.98 0 3 0 C3.6875 1.8125 3.6875 1.8125 4 4 C2.5625 5.75 2.5625 5.75 1 7 C0.34 6.67 -0.32 6.34 -1 6 C-1.042721 4.33388095 -1.04063832 2.66617115 -1 1 C-0.67 0.67 -0.34 0.34 0 0 Z " fill="#87B441" transform="translate(425,666)"/>
<path d="M0 0 C1.36118461 2.24195113 2.06138028 3.47826762 1.75 6.125 C1 8 1 8 -1 10 C-1.33 7.36 -1.66 4.72 -2 2 C-1.34 2 -0.68 2 0 2 C0 1.34 0 0.68 0 0 Z " fill="#9EC561" transform="translate(249,510)"/>
<path d="M0 0 C0.66 0.99 1.32 1.98 2 3 C-2.455 6.96 -2.455 6.96 -7 11 C-7.66 10.67 -8.32 10.34 -9 10 C-8.43410156 9.44570313 -7.86820313 8.89140625 -7.28515625 8.3203125 C-6.55167969 7.59585938 -5.81820312 6.87140625 -5.0625 6.125 C-4.33160156 5.40570313 -3.60070312 4.68640625 -2.84765625 3.9453125 C-0.94332001 2.12972808 -0.94332001 2.12972808 0 0 Z " fill="#D9E5C2" transform="translate(758,506)"/>
<path d="M0 0 C0.33 0 0.66 0 1 0 C0.67 3.63 0.34 7.26 0 11 C-0.66 11 -1.32 11 -2 11 C-2.28571429 3.57142857 -2.28571429 3.57142857 0 0 Z " fill="#85B83B" transform="translate(244,449)"/>
<path d="M0 0 C3.93846154 3.32307692 3.93846154 3.32307692 4.25 6.75 C4.1675 7.4925 4.085 8.235 4 9 C3.34 9 2.68 9 2 9 C0.14223235 5.86501708 -0.20140476 3.62528568 0 0 Z " fill="#85BC3A" transform="translate(755,415)"/>
<path d="M0 0 C1.07999887 3.2399966 0.92129428 4.38363535 0.1875 7.625 C0.01605469 8.42164063 -0.15539062 9.21828125 -0.33203125 10.0390625 C-1 12 -1 12 -3 13 C-4.00821159 10.31143576 -4.22736824 8.58296785 -3.17578125 5.88671875 C-2.16604698 3.89205069 -1.11893353 1.9353228 0 0 Z " fill="#EBEDD7" transform="translate(586,407)"/>
<path d="M0 0 C0.99 0.99 1.98 1.98 3 3 C2.01 3.495 2.01 3.495 1 4 C0.27840576 5.64363134 -0.39351421 7.31050386 -1 9 C-1.66 9 -2.32 9 -3 9 C-2.01 6.03 -1.02 3.06 0 0 Z " fill="#99C755" transform="translate(734,360)"/>
<path d="M0 0 C0.66 0.33 1.32 0.66 2 1 C-0.64 3.64 -3.28 6.28 -6 9 C-6.66 8.34 -7.32 7.68 -8 7 C-5.36 4.69 -2.72 2.38 0 0 Z " fill="#E3EAD2" transform="translate(537,209)"/>
<path d="M0 0 C0 1.32 0 2.64 0 4 C-0.61875 4.144375 -1.2375 4.28875 -1.875 4.4375 C-4.03258322 4.93152225 -4.03258322 4.93152225 -6 6 C-5.625 3.5625 -5.625 3.5625 -5 1 C-3 0 -3 0 0 0 Z " fill="#FAFAF6" transform="translate(755,584)"/>
<path d="M0 0 C-0.33 3.96 -0.66 7.92 -1 12 C-1.33 12 -1.66 12 -2 12 C-2 9.03 -2 6.06 -2 3 C-2.99 3 -3.98 3 -5 3 C-5 2.34 -5 1.68 -5 1 C-3 0 -3 0 0 0 Z " fill="#A1C662" transform="translate(444,576)"/>
<path d="M0 0 C0.33 0 0.66 0 1 0 C1.33 4.29 1.66 8.58 2 13 C1.01 13.66 0.02 14.32 -1 15 C-0.67 10.05 -0.34 5.1 0 0 Z " fill="#9EC964" transform="translate(256,551)"/>
<path d="M0 0 C0.33 0.99 0.66 1.98 1 3 C1.66 3 2.32 3 3 3 C3 4.98 3 6.96 3 9 C2.01 9 1.02 9 0 9 C0 6.03 0 3.06 0 0 Z " fill="#8EBE48" transform="translate(246,503)"/>
<path d="M0 0 C3.36241563 0.45438049 6.04009971 1.35561095 9 3 C9 3.33 9 3.66 9 4 C1.25 3.25 1.25 3.25 -1 1 C-0.67 0.67 -0.34 0.34 0 0 Z " fill="#EBEFE0" transform="translate(476,499)"/>
<path d="M0 0 C0.33 0 0.66 0 1 0 C1.33 2.97 1.66 5.94 2 9 C1.67 9 1.34 9 1 9 C0.67 10.98 0.34 12.96 0 15 C-0.33 15 -0.66 15 -1 15 C-1.10251672 9.87416389 -1.03590199 5.05002222 0 0 Z " fill="#A7CB71" transform="translate(770,454)"/>
<path d="M0 0 C-0.33 1.32 -0.66 2.64 -1 4 C-4.75 5.125 -4.75 5.125 -7 4 C-7 3.34 -7 2.68 -7 2 C-2.25 0 -2.25 0 0 0 Z " fill="#84B14E" transform="translate(594,420)"/>
<path d="M0 0 C1.98 0 3.96 0 6 0 C6 0.99 6 1.98 6 3 C3.69 3 1.38 3 -1 3 C-0.67 2.01 -0.34 1.02 0 0 Z " fill="#8FB836" transform="translate(457,646)"/>
<path d="M0 0 C1.485 0.99 1.485 0.99 3 2 C3.6875 5.625 3.6875 5.625 4 9 C3.34 9 2.68 9 2 9 C0.50178941 5.62902617 0 3.79557881 0 0 Z " fill="#87BC40" transform="translate(262,586)"/>
<path d="M0 0 C0.33 0.66 0.66 1.32 1 2 C0.0625 4.125 0.0625 4.125 -1 6 C-0.34 6.33 0.32 6.66 1 7 C1 7.66 1 8.32 1 9 C-1.475 8.01 -1.475 8.01 -4 7 C-2.79618552 4.50638429 -1.54571278 2.31856917 0 0 Z " fill="#79A859" transform="translate(458,500)"/>
<path d="M0 0 C0.33 0 0.66 0 1 0 C1.33 3.96 1.66 7.92 2 12 C1.01 12.33 0.02 12.66 -1 13 C-1.33 11.68 -1.66 10.36 -2 9 C-1.34 9 -0.68 9 0 9 C0 6.03 0 3.06 0 0 Z " fill="#A9CC6D" transform="translate(524,349)"/>
<path d="M0 0 C0.33 0.66 0.66 1.32 1 2 C-0.98 4.97 -0.98 4.97 -3 8 C-3.66 7.67 -4.32 7.34 -5 7 C-3.75023244 3.34683329 -3.32901247 2.21934164 0 0 Z " fill="#92BD41" transform="translate(298,330)"/>
<path d="M0 0 C2.88575819 0.39803561 3.82189513 0.79009069 5.75 3.0625 C6.1625 3.701875 6.575 4.34125 7 5 C6.01 5.33 5.02 5.66 4 6 C2.62437146 4.71034824 1.29233607 3.37310707 0 2 C0 1.34 0 0.68 0 0 Z " fill="#8FBA3F" transform="translate(718,321)"/>
<path d="M0 0 C0.99 0.33 1.98 0.66 3 1 C2.67 1.33 2.34 1.66 2 2 C4.97 2.495 4.97 2.495 8 3 C8 3.33 8 3.66 8 4 C4.7 4 1.4 4 -2 4 C-1.34 2.68 -0.68 1.36 0 0 Z " fill="#87B63B" transform="translate(683,270)"/>
<path d="M0 0 C0.53625 0.2475 1.0725 0.495 1.625 0.75 C-0.10026042 1.7265625 -1.82552083 2.703125 -3.55078125 3.6796875 C-5.19482289 4.64428581 -6.78900588 5.69267059 -8.375 6.75 C-8.375 5.76 -8.375 4.77 -8.375 3.75 C-3.35945596 -0.35362694 -3.35945596 -0.35362694 0 0 Z " fill="#A0C557" transform="translate(630.375,221.25)"/>
<path d="M0 0 C0.66 0.99 1.32 1.98 2 3 C1.01 4.485 1.01 4.485 0 6 C-0.38499891 7.65549531 -0.72793135 9.3222433 -1 11 C-1.66 10.67 -2.32 10.34 -3 10 C-2.39009109 6.44219804 -1.4216319 3.3171411 0 0 Z " fill="#8BBA50" transform="translate(483,685)"/>
<path d="M0 0 C-0.33 0.99 -0.66 1.98 -1 3 C-2.875 3.625 -2.875 3.625 -5 4 C-5.99 4.33 -6.98 4.66 -8 5 C-5.96115496 0.48541456 -5.19128917 0 0 0 Z " fill="#D3E3BD" transform="translate(444,654)"/>
<path d="M0 0 C0.66 0 1.32 0 2 0 C2.59732819 2.76264289 3 5.16032769 3 8 C2.01 7.67 1.02 7.34 0 7 C0 4.69 0 2.38 0 0 Z " fill="#94BF52" transform="translate(262,542)"/>
<path d="M0 0 C2.31 0.66 4.62 1.32 7 2 C4 4 4 4 2 4 C1.67 4.66 1.34 5.32 1 6 C0.67 4.02 0.34 2.04 0 0 Z " fill="#94BF51" transform="translate(762,406)"/>
<path d="M0 0 C0.66 0.33 1.32 0.66 2 1 C-2.95 3.97 -2.95 3.97 -8 7 C-8.66 6.34 -9.32 5.68 -10 5 C-8.38007835 4.13624104 -6.75388139 3.28424146 -5.125 2.4375 C-4.22007812 1.96183594 -3.31515625 1.48617188 -2.3828125 0.99609375 C-1.20332031 0.50302734 -1.20332031 0.50302734 0 0 Z " fill="#D4E3B3" transform="translate(622,404)"/>
<path d="M0 0 C2.97 0.33 5.94 0.66 9 1 C8.67 1.66 8.34 2.32 8 3 C5.36 2.67 2.72 2.34 0 2 C0 1.34 0 0.68 0 0 Z " fill="#8EBF39" transform="translate(494,226)"/>
<path d="M0 0 C0.33 0 0.66 0 1 0 C1.33 3.63 1.66 7.26 2 11 C1.34 10.67 0.68 10.34 0 10 C0 9.34 0 8.68 0 8 C-0.66 8 -1.32 8 -2 8 C-2 7.34 -2 6.68 -2 6 C-1.34 6 -0.68 6 0 6 C0 4.02 0 2.04 0 0 Z " fill="#9DC65F" transform="translate(253,528)"/>
<path d="M0 0 C0.99 0 1.98 0 3 0 C2.34 3.63 1.68 7.26 1 11 C0.67 11 0.34 11 0 11 C0 7.37 0 3.74 0 0 Z " fill="#FBF8F8" transform="translate(771,505)"/>
<path d="M0 0 C0.625 1.8125 0.625 1.8125 1 4 C0.01 5.485 0.01 5.485 -1 7 C-1.66 7 -2.32 7 -3 7 C-2.625 4.0625 -2.625 4.0625 -2 1 C-1.34 0.67 -0.68 0.34 0 0 Z " fill="#8BBB3E" transform="translate(257,489)"/>
<path d="M0 0 C0.66 0.66 1.32 1.32 2 2 C0.35 4.97 -1.3 7.94 -3 11 C-4 9 -4 9 -3.1875 6.0625 C-2 3 -2 3 0 0 Z " fill="#9BC541" transform="translate(547,403)"/>
<path d="M0 0 C1.4606285 2.64738916 2 3.89448334 2 7 C1.01 7.33 0.02 7.66 -1 8 C-1.33 6.35 -1.66 4.7 -2 3 C-1.34 3 -0.68 3 0 3 C0 2.01 0 1.02 0 0 Z " fill="#9AC256" transform="translate(750,395)"/>
<path d="M0 0 C1.32 0.99 2.64 1.98 4 3 C3.67 3.99 3.34 4.98 3 6 C1.68 5.34 0.36 4.68 -1 4 C-0.67 2.68 -0.34 1.36 0 0 Z " fill="#7EAB46" transform="translate(432,694)"/>
<path d="M0 0 C1.32 0.33 2.64 0.66 4 1 C3.01 1 2.02 1 1 1 C1.33 2.32 1.66 3.64 2 5 C1.01 5.33 0.02 5.66 -1 6 C-1.66 5.01 -2.32 4.02 -3 3 C-2.01 3 -1.02 3 0 3 C0 2.01 0 1.02 0 0 Z " fill="#E2E9D4" transform="translate(478,671)"/>
<path d="M0 0 C1.32 0.33 2.64 0.66 4 1 C4.33 2.32 4.66 3.64 5 5 C3.35 4.67 1.7 4.34 0 4 C0 2.68 0 1.36 0 0 Z " fill="#96C34F" transform="translate(228,445)"/>
<path d="M0 0 C0.99 0.33 1.98 0.66 3 1 C3 2.98 3 4.96 3 7 C2.34 7 1.68 7 1 7 C0.67 4.69 0.34 2.38 0 0 Z " fill="#88BA40" transform="translate(764,439)"/>
<path d="M0 0 C1.32 0.33 2.64 0.66 4 1 C1.375 4.875 1.375 4.875 -2 6 C-1.34 4.02 -0.68 2.04 0 0 Z " fill="#95C24F" transform="translate(253,416)"/>
<path d="M0 0 C2.0625 0.4375 2.0625 0.4375 4 1 C4 1.99 4 2.98 4 4 C3.01 4 2.02 4 1 4 C0.34 3.01 -0.32 2.02 -1 1 C-0.67 0.67 -0.34 0.34 0 0 Z " fill="#9EC557" transform="translate(289,374)"/>
</svg>
